<svg width="48" height="48" viewBox="0 0 48 48" fill="none" xmlns="http://www.w3.org/2000/svg">
<g clip-path="url(#clip0_30732_10785)">
<rect width="48" height="48" rx="24" fill="white"/>
<path d="M38.6854 7.73114C38.888 7.8066 38.908 8.07178 38.8792 8.2861C38.6 10.3689 36.8741 11.8336 35.9427 13.6456C35.5837 14.6392 34.777 15.276 34.1084 16.106C33.9137 16.3477 33.7188 16.5899 33.5068 16.8166C33.2229 17.1201 32.9449 17.4355 32.6802 17.7577C32.2525 18.2781 32.1602 18.963 32.6994 19.3666C32.9203 19.532 33.1464 19.7107 33.3393 19.9079C33.6921 20.2686 33.8554 20.7436 34.1741 21.1292C34.33 21.3177 34.5989 21.3853 34.7494 21.5781C34.9728 21.8644 35.3605 22.0348 35.5986 22.3089C36.1232 22.9129 36.5906 23.5309 37.0491 24.1677C37.3137 24.5352 37.4779 24.9691 37.7368 25.3407C37.9122 25.5923 38.1308 25.8132 38.2975 26.0706C38.4776 26.3488 38.6504 26.6312 38.8236 26.9147C39.3451 27.7684 39.7032 28.7436 40.2342 29.5915C40.6385 30.2371 40.9659 30.9586 41.3055 31.6404C41.4604 31.9512 41.6403 32.2508 41.7741 32.5713C42.1663 33.5108 42.4852 34.4686 42.9887 35.3613C43.0634 35.5185 43.0265 35.6757 42.956 35.8157C42.8855 35.9559 42.767 36.1034 42.6166 36.0589C42.3242 35.9723 42.0212 35.8651 41.7383 35.7513C40.5856 35.2874 39.4776 34.6689 38.3955 34.0128C37.525 33.3101 36.5924 32.7489 35.6901 32.1151C34.9048 31.5633 34.2733 30.7517 33.4183 30.3156C32.2276 29.5774 31.284 28.5236 30.0843 27.833C29.7692 27.5919 29.4541 27.3578 29.1384 27.1186C28.6829 26.7734 28.1918 26.4623 27.7641 26.0831C27.6073 25.944 27.3973 25.8594 27.2224 25.7439C26.5451 25.2965 25.9049 24.7512 25.2221 24.3145C25.0257 24.1888 24.8855 24.2895 24.8036 24.5079C24.7924 24.5378 24.7708 24.5608 24.7488 24.5839C24.6058 24.734 24.5081 24.9027 24.4352 25.0814C24.0094 26.1245 23.8755 27.335 23.3475 28.3302C23.3065 28.4075 23.2657 28.4847 23.2262 28.5623C23.0233 28.9602 22.8494 29.3739 22.6369 29.7667C22.011 30.9233 21.4332 32.0947 20.764 33.2269C19.7815 34.5294 19.2278 36.0834 17.9323 37.1824C17.7747 37.3161 17.6285 37.4632 17.4806 37.6075C17.3214 37.7629 17.1522 37.8864 16.9742 38.0042C16.74 38.1592 16.3894 38.3115 16.1837 38.1204C16.1186 38.0598 16.0948 37.9658 16.0727 37.8797C16.0654 37.8512 16.0599 37.8219 16.0557 37.792C15.9731 37.1986 16.0497 36.486 16.0606 35.8869C16.063 35.753 16.0675 35.6179 16.0838 35.4832C16.0949 35.3912 16.0888 35.2974 16.0574 35.2103C16.0359 35.1507 16.025 35.0876 16.029 35.0243C16.0492 34.7032 16.1331 34.4038 16.1988 34.1024C16.339 33.4602 16.4107 32.7832 16.5084 32.1332C16.5549 31.8238 16.6272 31.515 16.7249 31.2177C16.8233 30.9182 16.903 30.6129 16.9634 30.3035C17.0361 29.9318 17.1606 29.5699 17.2449 29.2006C17.2634 29.1196 17.2776 29.0377 17.2875 28.9552C17.3303 28.5991 17.3437 28.2311 17.4551 27.8901C17.4728 27.8358 17.4919 27.7819 17.5132 27.729C17.6778 27.3203 17.9265 26.9531 17.9478 26.513C17.9526 26.4138 17.9784 26.312 18.0101 26.2178C18.4233 24.9907 18.9086 23.8014 19.2332 22.547C19.2517 22.4754 19.269 22.3837 19.21 22.339C19.1448 22.2896 19.0615 22.2877 18.9797 22.2853C18.5348 22.2722 18.1033 22.3073 17.6782 22.3179C16.8188 22.3393 15.9584 22.2016 15.1012 22.1351C14.1001 22.0574 13.1049 21.9124 12.1224 21.7008C11.8904 21.6541 11.6396 21.6373 11.3892 21.6114C10.7014 21.5401 9.9386 21.5703 9.33311 21.2364C8.99327 21.068 8.61336 21.0006 8.23497 20.9257C7.55436 20.7909 6.85514 20.5756 6.19361 20.3664C6.1599 20.3557 6.12589 20.346 6.09145 20.3375C5.98001 20.31 5.86267 20.3192 5.74987 20.2979C5.44893 20.2412 5.24361 19.9844 5.01115 19.7844C4.97031 19.7492 4.94531 19.6987 4.94531 19.6448C4.94531 19.6074 4.95729 19.5707 4.97998 19.541C5.78552 18.4862 7.04549 18.1882 8.18109 17.7773C9.31822 17.4231 10.5834 17.3933 11.7681 17.1522C13.2941 16.8929 14.8695 17.1291 16.4104 17.2757C16.9747 17.3294 17.5387 17.3782 18.1087 17.3933C18.5078 17.4488 18.8788 17.6194 19.2716 17.6444C19.3533 17.6496 19.4162 17.5785 19.4098 17.4969C19.4077 17.4701 19.3981 17.4444 19.3822 17.4227L18.5065 16.2304C18.262 15.8975 18.0633 15.5336 17.8657 15.1709C17.4829 14.4685 16.9982 13.8111 16.6851 13.0831C16.5176 12.6936 16.3247 12.2868 16.3314 11.8628C16.334 11.7028 16.341 11.5404 16.3044 11.3899C16.2742 11.2661 16.2166 11.1384 16.2745 11.0248C16.3652 10.8468 16.5468 10.7158 16.7462 10.7293C16.776 10.7313 16.8058 10.734 16.8357 10.7366C17.1364 10.7631 17.4598 10.7036 17.7507 10.7845C18.2542 10.9245 18.7422 11.0854 19.2463 11.2102C19.5315 11.2807 19.8153 11.3594 20.0878 11.4693C20.8016 11.7571 21.5133 12.0716 22.1452 12.5412C22.8858 13.0668 23.7475 13.4458 24.438 14.0883C24.8247 14.448 25.2001 14.9597 25.7114 14.8273C26.127 14.7727 26.3727 14.3284 26.7429 14.1319C27.4951 13.7327 28.2909 13.4207 29.0235 12.9569C29.2033 12.8431 29.36 12.6952 29.5397 12.5809C29.7252 12.463 29.9306 12.3755 30.1139 12.2644C30.4812 12.0417 30.7707 11.6604 31.1612 11.4816C31.3592 11.391 31.5568 11.3068 31.7332 11.1792C31.9539 11.0197 32.175 10.8584 32.4001 10.7045C32.907 10.3577 33.5192 10.1797 34.0256 9.83229C34.7722 9.42549 35.5455 9.07072 36.2828 8.65582C36.7596 8.38748 37.1117 7.84736 37.651 7.75525C37.7238 7.74283 37.7982 7.73379 37.8725 7.72503C38.1439 7.69304 38.4293 7.63577 38.6854 7.73114Z" fill="#00A0DF"/>
<path d="M24.5073 29.551C24.7892 29.6332 25.1019 29.5052 25.3791 29.6022C25.5836 29.6738 25.8255 29.6675 25.954 29.8419C25.9698 29.8633 25.9845 29.8853 25.9986 29.9078C26.2201 30.259 26.5496 30.5724 26.697 30.9605C26.8322 31.3164 26.9391 31.6838 27.0327 32.0516C27.0715 32.2041 27.0524 32.3662 27.072 32.5224C27.1006 32.7511 27.2461 32.9331 27.2076 33.1686C27.2001 33.2144 27.2177 33.2626 27.2581 33.2854C27.2871 33.3018 27.3059 33.3318 27.307 33.3651C27.3154 33.6188 27.289 33.872 27.2287 34.1176C27.1747 34.3375 27.147 34.5643 27.1247 34.7897C27.0856 35.1858 26.9233 35.546 26.744 35.9016C26.6269 36.1339 26.4628 36.3582 26.2918 36.5542C26.1309 36.7386 25.8344 36.7166 25.6658 36.894C25.609 36.9539 25.5577 37.0203 25.5077 37.087C25.1637 37.5456 24.502 37.7303 23.93 37.692C23.8928 37.6895 23.8555 37.6866 23.8183 37.6838C23.5185 37.6604 23.2059 37.6036 22.9146 37.5291C22.6156 37.4526 22.3582 37.2609 22.0938 37.1018C21.9323 37.0046 21.7759 36.8931 21.6232 36.7747C21.3294 36.5469 21.0875 36.2444 20.8433 35.964C20.614 35.7006 20.6798 35.3265 20.6283 34.9812C20.6063 34.8336 20.5719 34.6874 20.5541 34.5398C20.5202 34.2574 20.5576 33.9675 20.5262 33.6848L20.525 33.6745C20.4981 33.4323 20.5107 33.1873 20.5622 32.9491L20.6231 32.6678C20.724 32.2018 21.0453 31.7678 21.2357 31.3306C21.4121 30.9256 21.7407 30.5814 22.0785 30.2968C22.3886 30.0355 22.7829 29.8832 23.1433 29.691C23.2791 29.6187 23.4241 29.5606 23.5777 29.5694C23.884 29.5871 24.1871 29.4511 24.48 29.5427C24.4891 29.5455 24.4982 29.5483 24.5073 29.551Z" fill="#E30613"/>
<path d="M25.1637 23.3198C25.4671 23.421 25.6502 23.7589 25.7787 24.0518C25.7908 24.0794 25.8026 24.1073 25.8144 24.135C25.9416 24.4343 26.1107 24.7357 26.1579 25.0574C26.2045 25.3747 26.1298 25.6978 25.9489 25.9626L25.7912 26.1932C25.6065 26.4634 25.3613 26.6929 25.054 26.8053C24.1845 27.1231 23.1029 27.1728 22.384 26.5243C21.9533 26.1337 21.8087 25.5892 21.8746 25.0312C21.8895 24.9047 21.9269 24.7823 21.971 24.6629L22.1019 24.3084C22.1925 24.0631 22.3665 23.8766 22.5952 23.7498C22.7699 23.653 22.9034 23.479 23.092 23.4134C23.3054 23.3392 23.5363 23.312 23.7689 23.2886C24.1543 23.2498 24.5557 23.2377 24.9411 23.2763C25.0187 23.284 25.0941 23.2966 25.1637 23.3198Z" fill="#FFCC00"/>
</g>
<defs>
<clipPath id="clip0_30732_10785">
<rect width="48" height="48" fill="white"/>
</clipPath>
</defs>
</svg>
