<svg width="16" height="16" viewBox="0 0 16 16" fill="none" xmlns="http://www.w3.org/2000/svg">
<path d="M8.01064 13.6853C6.45731 13.6853 4.90398 13.4386 3.43064 12.9453C2.87064 12.752 2.44398 12.3586 2.25731 11.8453C2.06398 11.332 2.13064 10.7653 2.43731 10.2586L3.20398 8.98531C3.36398 8.71865 3.51064 8.18531 3.51064 7.87198V5.94531C3.51064 3.46531 5.53064 1.44531 8.01064 1.44531C10.4906 1.44531 12.5106 3.46531 12.5106 5.94531V7.87198C12.5106 8.17865 12.6573 8.71865 12.8173 8.99198L13.5773 10.2586C13.864 10.7386 13.9173 11.3186 13.724 11.8453C13.5306 12.372 13.1106 12.772 12.584 12.9453C11.1173 13.4386 9.56398 13.6853 8.01064 13.6853ZM8.01064 2.44531C6.08398 2.44531 4.51064 4.01198 4.51064 5.94531V7.87198C4.51064 8.35865 4.31064 9.07865 4.06398 9.49865L3.29731 10.772C3.15064 11.0186 3.11064 11.2786 3.19731 11.4986C3.27731 11.7253 3.47731 11.8986 3.75064 11.992C6.53731 12.9253 9.49064 12.9253 12.2773 11.992C12.5173 11.912 12.704 11.732 12.7906 11.492C12.8773 11.252 12.8573 10.992 12.724 10.772L11.9573 9.49865C11.704 9.06531 11.5106 8.35198 11.5106 7.86531V5.94531C11.5106 4.01198 9.94398 2.44531 8.01064 2.44531Z" fill="#0F0F0F"/>
<path d="M9.25113 2.62906C9.20446 2.62906 9.1578 2.6224 9.11113 2.60906C8.9178 2.55573 8.73113 2.51573 8.55113 2.48906C7.98446 2.41573 7.4378 2.45573 6.92446 2.60906C6.7378 2.66906 6.5378 2.60906 6.41113 2.46906C6.28446 2.32906 6.24446 2.12906 6.3178 1.94906C6.59113 1.24906 7.2578 0.789062 8.0178 0.789062C8.7778 0.789062 9.44446 1.2424 9.7178 1.94906C9.78446 2.12906 9.75113 2.32906 9.62446 2.46906C9.52446 2.57573 9.38446 2.62906 9.25113 2.62906Z" fill="#0F0F0F"/>
<path d="M8.01562 15.2109C7.35563 15.2109 6.71562 14.9443 6.24896 14.4776C5.78229 14.0109 5.51562 13.3709 5.51562 12.7109H6.51562C6.51562 13.1043 6.67562 13.4909 6.95562 13.7709C7.23562 14.0509 7.62229 14.2109 8.01562 14.2109C8.84229 14.2109 9.51562 13.5376 9.51562 12.7109H10.5156C10.5156 14.0909 9.39563 15.2109 8.01562 15.2109Z" fill="#0F0F0F"/>
</svg>
