<svg width="100" height="100" viewBox="0 0 100 100" fill="none" xmlns="http://www.w3.org/2000/svg">
  <!-- Outer circle border -->
  <circle cx="50" cy="50" r="48" stroke="#1A2E6C" stroke-width="2.5" fill="none"/>
  <!-- Inner circle border -->
  <circle cx="50" cy="50" r="42" stroke="#1A2E6C" stroke-width="1" fill="none" stroke-dasharray="3 2"/>
  <!-- Bank building icon centered -->
  <rect x="32" y="58" width="5.5" height="10" rx="1" fill="#1A2E6C"/>
  <rect x="40" y="58" width="5.5" height="10" rx="1" fill="#1A2E6C"/>
  <rect x="48" y="58" width="5.5" height="10" rx="1" fill="#1A2E6C"/>
  <rect x="56" y="58" width="5.5" height="10" rx="1" fill="#1A2E6C"/>
  <rect x="64" y="58" width="5.5" height="10" rx="1" fill="#1A2E6C"/>
  <rect x="30" y="68" width="42" height="3" rx="1" fill="#1A2E6C"/>
  <path d="M50 28 L29 48 H71 L50 28Z" fill="#4A90D9"/>
  <rect x="30" y="48" width="42" height="4" rx="1" fill="#1A2E6C"/>
  <circle cx="50" cy="37" r="3.5" fill="white"/>
  <!-- Curved text "NEW BANK" at top -->
  <path id="topArc" d="M 50,50 m -36,0 a 36,36 0 1,1 72,0" fill="none"/>
  <text font-family="Arial, Helvetica, sans-serif" font-size="9.5" font-weight="700" fill="#1A2E6C" letter-spacing="3">
    <textPath href="#topArc" startOffset="8%">NEW BANK OFICIAL</textPath>
  </text>
  <!-- Stars at bottom -->
  <text x="37" y="93" font-family="Arial" font-size="9" fill="#4A90D9">★ ★ ★ ★</text>
</svg>
