<svg width="140" height="44" viewBox="0 0 140 44" fill="none" xmlns="http://www.w3.org/2000/svg">
<g clip-path="url(#clip0_30732_10782)">
<path d="M9.46605 22.2432C9.76059 22.4501 9.74795 22.8653 10.0133 23.0743L10.1475 23.9939L9.4816 24.9708C8.63493 25.4131 7.37513 25.6075 6.58873 24.895C6.14352 24.4945 6.02784 23.9161 6.14352 23.3387L6.45652 22.4959C6.63246 22.3755 6.86965 22.3452 6.99019 22.1392C7.40429 21.8727 7.93601 21.9303 8.41136 21.8281C8.76713 21.9447 9.30177 21.7532 9.46605 22.2432Z" fill="#FFCC00"/>
<path d="M7.26904 27.6578C7.53442 27.6578 7.72591 27.8523 7.9767 27.8066C8.33442 27.9397 8.28874 28.3714 8.66007 28.4764C8.94197 29.0363 9.11791 29.6477 9.26664 30.2523C9.1636 30.6081 9.46202 30.8161 9.35607 31.1418L9.46202 31.2029C9.47856 31.5422 9.43092 31.9281 9.29872 32.2547C9.35607 32.8778 9.04403 33.3959 8.77769 33.9296C8.58813 34.0481 8.49773 34.3894 8.23236 34.3301C7.7541 34.4789 7.71133 35.1875 7.13392 35.1019C6.76453 35.3819 6.25809 35.2165 5.81288 35.2331C5.56208 35.1019 5.20631 35.1319 5.03036 34.9074C4.58224 34.7305 4.18466 34.4039 3.8007 34.0772C3.65003 33.7497 3.31077 33.6019 3.26703 33.2335C3.39827 32.7873 3.11636 32.3859 3.23397 31.9436L3.14844 31.2029L3.42742 29.9265C3.90373 29.6728 3.76667 29.0983 4.24396 28.9195C4.54044 28.239 5.2481 28.0874 5.79829 27.7462C6.00923 27.7054 6.25808 27.822 6.42236 27.6296C6.71982 27.5839 7.00172 27.8981 7.26904 27.6578Z" fill="#E30613"/>
<path d="M31.4406 7.90534C31.321 9.99624 29.6024 11.4038 28.6945 13.1681C28.3134 14.2199 27.3919 14.842 26.7397 15.7927C26.1457 16.3993 25.5673 17.0671 25.0803 17.7485C25.1707 18.2355 25.6859 18.3716 25.9834 18.7264C26.6502 19.1269 26.7231 19.8803 27.3034 20.341C27.6427 20.341 27.6427 20.8465 28.016 20.7872C28.8014 21.6329 29.4391 22.5058 30.0875 23.4254C30.1924 23.752 30.3567 24.0757 30.6376 24.3139C31.1577 25.0701 31.5874 25.8711 32.1201 26.6419C32.1968 27.5013 32.921 28.0777 33.1417 28.8816C33.4703 29.3103 33.6025 29.8148 33.9009 30.2445C34.3587 31.2525 34.6717 32.3023 35.218 33.2695C35.322 33.4902 35.1889 33.7128 35.0713 33.8761C34.8632 34.0395 34.7028 33.7411 34.4608 33.7846C33.2506 33.3413 32.0899 32.7046 30.9652 32.0232C29.8065 31.0881 28.5321 30.4232 27.3919 29.4434C26.9467 29.3249 26.7698 28.8067 26.3576 28.5977C25.2582 27.9162 24.3814 26.9393 23.2713 26.3016C22.7688 25.9157 22.2633 25.5473 21.7588 25.1459C21.3729 25.0993 21.2426 24.6549 20.8703 24.5227C20.0392 24.0192 19.2858 23.3203 18.4411 22.8459C18.3653 22.9666 18.4411 23.1424 18.3653 23.262C17.8015 23.8112 17.9522 24.6549 17.5468 25.2635C17.5351 26.1374 16.9256 26.7779 16.6768 27.5449C15.9789 28.7911 15.3694 30.0674 14.6442 31.2961C13.6789 32.5724 13.1628 34.1132 11.799 35.1358C11.5025 35.5061 11.1623 35.6976 10.7919 35.9368C10.6276 35.891 10.3904 35.9175 10.3457 35.7141C10.1824 35.404 10.3904 34.9267 10.1688 34.6439C10.3584 34.2162 10.2407 33.7282 10.3311 33.2528L10.2582 33.0467C10.2728 32.3935 10.5975 31.8453 10.4643 31.1774C10.6422 30.7633 10.7161 30.3026 10.7579 29.8437C10.9708 29.2799 11.1486 28.6714 11.207 28.0639C11.3975 27.7081 11.4714 27.2503 11.4276 26.8342C11.5744 26.4513 11.6055 25.9885 12.008 25.7076C12.0653 25.4538 12.008 25.2041 12.0498 24.9377C12.4512 23.7207 12.9402 22.5494 13.2503 21.3071C13.2503 21.2175 13.1628 21.1886 13.1045 21.171C12.2296 21.1271 11.414 21.3071 10.5975 21.0844C9.26186 21.0679 7.91458 20.8902 6.64311 20.6236C6.12209 20.5198 5.49899 20.579 5.02559 20.2825C4.71356 20.2963 4.35486 20.3563 4.06324 20.194C3.45278 19.8956 2.71207 19.9413 2.10355 19.6147C1.64474 19.6769 1.32007 19.3774 0.902078 19.3337C0.502557 19.3649 0.280928 19.0217 0 18.7991V18.6679C0.740714 17.6579 1.92664 17.378 2.99397 16.9921C4.04672 16.6655 5.21904 16.6373 6.31553 16.4127C7.01153 16.2951 7.76585 16.4896 8.46282 16.367C9.72262 16.3989 10.9387 16.605 12.1849 16.6373C12.6009 16.6957 12.9839 16.8891 13.4 16.8715L13.3844 16.6954L12.2121 15.0954C11.7727 14.0572 10.9562 13.1833 10.6714 12.0849C10.406 11.7593 10.6568 11.2722 10.4478 10.9155C10.4352 10.7513 10.5693 10.6346 10.6422 10.4995C10.8959 10.3964 11.1759 10.5744 11.4276 10.411C12.1849 10.589 12.8809 10.8552 13.6362 11.002C14.4216 11.315 15.2236 11.6271 15.9196 12.1462C16.7935 12.7663 17.8482 13.1678 18.5267 14.1301C18.7075 14.2944 18.9864 14.3236 19.2217 14.2613C19.4307 14.2337 19.4773 13.9823 19.6708 13.9085C20.5874 13.3301 21.6256 13.0064 22.5326 12.3677C22.8971 11.9954 23.4949 11.9517 23.7136 11.4481C23.9984 11.3151 24.2521 11.1371 24.5477 11.0622C25.0677 10.6938 25.5848 10.2924 26.1457 9.99586C26.4451 9.96472 26.6804 9.8005 26.9185 9.64106C27.8371 9.13656 28.8014 8.72148 29.6743 8.14407C29.8678 7.62499 30.4442 7.74263 30.8603 7.625C31.0673 7.66964 31.3502 7.63916 31.4406 7.90534Z" fill="#00A0DF"/>
<path d="M41.9688 32.4455H139.999V32.0625H41.9688V32.4455Z" fill="black"/>
<path d="M41.9688 32.802H139.999V32.4219H41.9688V32.802Z" fill="black"/>
<path d="M114.087 26.2959C113.705 26.5331 113.233 26.7003 112.495 26.7003C111.501 26.7003 110.647 25.8691 110.647 24.7794C110.647 23.262 111.784 22.6924 112.876 22.6924C113.301 22.6924 113.751 22.7616 114.013 22.809L114.087 26.2959ZM109.956 20.5082C110.55 19.6314 111.144 19.2532 112.307 19.2532C113.919 19.2532 114.013 20.6734 114.013 21.9546C113.681 21.9546 113.279 21.8835 112.898 21.8835C110.74 21.8835 108.344 22.8575 108.344 25.3713C108.344 27.1259 109.933 28.1232 111.547 28.1232C112.59 28.1232 113.35 27.5526 114.157 26.9616C114.44 27.5526 115.152 28.0046 116.058 28.1232L117.833 26.7001L117.477 26.3453C117.31 26.391 117.098 26.4406 116.979 26.4406C116.457 26.4406 116.27 26.1296 116.27 25.0399V24.2088C116.293 22.8576 116.36 21.625 116.36 20.7706C116.36 18.3987 114.559 17.8281 112.449 17.8281C111.334 17.8281 110.386 17.972 109.388 18.2549V20.5081L109.956 20.5082Z" fill="black"/>
<path d="M57.2276 14.5079H56.2079C55.4545 12.2196 53.0681 11.3195 50.9753 11.3195C46.7419 11.3195 44.9902 14.7246 44.9902 18.8122C44.9902 25.6731 49.9546 26.8395 51.9726 26.8395C53.9459 26.8395 55.718 25.989 56.7921 24.2859L57.5455 24.6028L56.7921 27.3032C54.8451 27.6687 53.628 27.8622 52.0484 27.8622C44.7958 27.8622 41.6094 23.3868 41.6094 19.0066C41.6094 13.9956 45.4782 10.2969 50.9305 10.2969C54.0888 10.2969 55.3058 10.8325 57.0332 11.2719L57.2276 14.5079Z" fill="black"/>
<path d="M59.9835 20.4895V18.2324C60.9789 17.9486 61.9286 17.8047 63.0484 17.8047C65.1617 17.8047 66.9678 18.3763 66.9678 20.751C66.9678 21.6084 66.8968 22.8429 66.8715 24.197V25.0291C66.8715 26.1227 67.0621 26.4318 67.5879 26.4318C67.7046 26.4318 67.9175 26.3841 68.0847 26.3345L68.4414 26.6922L66.6606 28.1183C65.7546 28.0017 65.0431 27.5467 64.7553 26.9518C63.9505 27.5467 63.1884 28.1183 62.1453 28.1183C60.5297 28.1183 58.9375 27.119 58.9375 25.3586C58.9375 22.8428 61.3375 21.8698 63.4994 21.8698C63.8776 21.8698 64.2829 21.9379 64.6134 21.9379C64.6134 20.6567 64.5191 19.2316 62.9045 19.2316C61.739 19.2316 61.146 19.6107 60.5511 20.4895L59.9835 20.4895ZM64.6134 22.7943C64.3548 22.7447 63.9019 22.6758 63.4722 22.6758C62.3816 22.6758 61.2403 23.2484 61.2403 24.7667C61.2403 25.8603 62.0997 26.6924 63.095 26.6924C63.8309 26.6924 64.3062 26.5262 64.6892 26.29L64.6134 22.7943Z" fill="black"/>
<path d="M72.303 17.8262C72.303 18.8284 72.3992 20.9173 72.3992 22.8654V26.3357C72.3992 27.1434 72.7812 27.2611 73.3256 27.4059V27.8812C72.614 27.8812 71.9025 27.8074 71.1841 27.8074C70.5465 27.8074 69.9059 27.8551 69.2614 27.8812V27.4059C69.833 27.261 70.0935 27.1433 70.0935 26.3357V23.3893C70.0935 21.6765 69.9545 20.7249 69.761 20.2272C69.5715 19.7538 69.3333 19.5885 68.7656 19.4904V19.016C69.8582 18.7564 71.119 18.3044 71.8296 17.8262H72.303ZM71.1404 13.8125C71.8296 13.8125 72.4469 14.3112 72.4469 15.0256C72.4469 15.7372 71.8296 16.2349 71.1404 16.2349C70.4512 16.2349 69.833 15.7372 69.833 15.0256C69.833 14.3112 70.4512 13.8125 71.1404 13.8125Z" fill="black"/>
<path d="M74.5119 27.4003C75.2701 27.2818 75.7698 26.6897 76.0808 26.2853L78.3856 23.338L75.6551 19.6315C75.1992 19.0366 75.032 18.8714 74.3438 18.5603V18.0859C75.0582 18.108 75.7951 18.159 76.5076 18.159C77.2201 18.159 77.9346 18.1094 78.6442 18.0859V18.5603C78.3603 18.7011 78.1465 18.7527 78.1465 19.1076C78.1465 19.2729 78.2174 19.5829 78.4303 19.8687L79.7397 21.6496L80.9013 20.104C81.1385 19.7735 81.26 19.4877 81.26 19.3215C81.26 18.8714 80.9733 18.7013 80.5941 18.5603V18.0859C81.2338 18.108 81.852 18.159 82.4936 18.159C83.1118 18.159 83.7553 18.1094 84.3735 18.0859V18.5603C83.4443 18.7753 82.9466 19.3448 82.4255 20.0116L80.4036 22.5779L82.9709 26.1415C83.3257 26.6168 83.871 27.2108 84.4659 27.4003V27.8766C83.7553 27.8518 83.0632 27.8047 82.3526 27.8047C81.6382 27.8047 80.948 27.8513 80.2374 27.8766V27.4003C80.4979 27.3755 80.7127 27.1174 80.7127 26.8764C80.7127 26.7364 80.5232 26.3563 80.3307 26.0696L79.0486 24.2411L77.7645 25.9733C77.6186 26.1891 77.4349 26.6421 77.4349 26.855C77.4349 27.2321 77.6187 27.3537 77.9346 27.4003V27.8766C77.3154 27.8518 76.6709 27.8047 76.0536 27.8047C75.5345 27.8047 75.032 27.8513 74.5119 27.8766V27.4003Z" fill="black"/>
<path d="M86.1573 20.4895V18.2324C87.1556 17.9486 88.1034 17.8047 89.2232 17.8047C91.3384 17.8047 93.1455 18.3763 93.1455 20.751C93.1455 21.6084 93.0716 22.8429 93.0483 24.197V25.0291C93.0483 26.1227 93.2388 26.4318 93.7608 26.4318C93.8803 26.4318 94.0923 26.3841 94.2604 26.3345L94.6172 26.6922L92.8305 28.1183C91.9323 28.0017 91.2208 27.5467 90.934 26.9518C90.1252 27.5467 89.3641 28.1183 88.323 28.1183C86.7055 28.1183 85.1094 27.119 85.1094 25.3586C85.1094 22.8428 87.5084 21.8698 89.6732 21.8698C90.0553 21.8698 90.4577 21.9379 90.7911 21.9379C90.7911 20.6567 90.6978 19.2316 89.0812 19.2316C87.9148 19.2316 87.3208 19.6107 86.7288 20.4895L86.1573 20.4895ZM90.7911 22.7943C90.5316 22.7447 90.0805 22.6758 89.6509 22.6758C88.5563 22.6758 87.418 23.2484 87.418 24.7667C87.418 25.8603 88.2754 26.6924 89.2698 26.6924C90.0057 26.6924 90.4859 26.5262 90.865 26.29L90.7911 22.7943Z" fill="black"/>
<path d="M99.3799 12.657C99.3799 12.207 99.6628 12.1827 100.327 12.1827C102.89 12.1827 103.862 13.5601 103.862 15.6471C103.862 17.7098 102.437 19.0153 100.327 19.0153C100.019 19.0153 99.6832 18.9933 99.2623 18.9677L99.3799 12.657ZM96.7203 25.8694C96.7203 26.8901 96.4141 27.2449 95.3672 27.3634V27.7912H99.4489C99.7804 27.7912 100.115 27.816 100.424 27.8388C100.756 27.8609 101.088 27.8835 101.396 27.8835C103.982 27.8835 107.042 26.89 107.042 23.8309C107.042 21.3629 105.545 20.105 103.314 19.4887V19.441C105.096 18.8714 106.755 17.5669 106.755 15.5508C106.755 12.4664 103.573 11.3281 100.92 11.3281C100.351 11.3281 99.8057 11.4235 98.7383 11.4235C97.7896 11.4235 96.8175 11.3281 95.6306 11.3281V11.8511C96.2712 11.9465 96.6532 12.1583 96.6532 13.0604C96.6532 15.197 96.7203 18.2084 96.7203 21.0547L96.7203 25.8694ZM99.2623 19.9874C99.757 19.9874 100.136 19.9626 100.54 19.9626C102.815 19.9626 104.146 21.5762 104.146 23.7352C104.146 25.5607 102.937 27.0315 100.895 27.0315C99.4265 27.0315 99.2623 26.7942 99.2623 25.5141V19.9874Z" fill="black"/>
<path d="M118.219 19.4718C118.931 19.4718 119.262 19.8742 119.262 20.5625C119.262 21.3207 119.381 22.6038 119.381 23.9783V26.3035C119.381 27.1103 119.097 27.2027 118.504 27.4165V27.8909C119.169 27.8909 119.853 27.8209 120.519 27.8209C121.206 27.8209 121.873 27.8675 122.56 27.8909V27.4165C121.921 27.3454 121.68 27.1561 121.68 26.3035V24.3584C121.68 22.5076 121.73 21.1797 121.73 20.2786C121.73 19.4009 123.246 19.1637 123.721 19.1637C125.405 19.1637 125.666 20.9182 125.666 22.1994V26.3035C125.666 27.1103 125.474 27.2766 124.81 27.4165V27.8909C125.573 27.8909 126.306 27.8209 127.064 27.8209C127.66 27.8209 128.228 27.8675 128.822 27.8909V27.4165C128.157 27.23 127.967 27.0627 127.967 26.3035V21.275C127.967 19.2589 127.041 17.8582 124.694 17.8582C123.696 17.8582 122.63 18.4521 121.8 18.9974C121.825 18.594 121.825 18.2159 121.847 17.8125H121.373C120.474 18.3792 119.62 18.7369 118.219 18.9974L118.219 19.4718Z" fill="black"/>
<path d="M139.99 27.3717C139.281 27.1598 138.426 26.4006 138.119 26.0448L134.534 21.8455L136.362 19.9237C136.929 19.3308 137.714 18.7854 138.567 18.5473V18.0748C137.976 18.1206 137.382 18.1459 136.788 18.1459C136.15 18.1459 135.482 18.1211 134.842 18.0748V18.5473C135.058 18.6454 135.271 18.9293 135.271 19.1655C135.271 19.4278 135.151 19.7828 134.653 20.2805L132.709 22.2013V11.0312H132.187C131.333 11.6699 130.221 12.1676 129.031 12.4767V13.0211C129.624 13.0211 130.17 13.5917 130.221 14.5637C130.29 15.4658 130.411 17.2447 130.411 18.6211V26.3053C130.411 26.8264 130.221 27.2531 129.508 27.3717V27.847C130.147 27.8005 130.764 27.776 131.403 27.776C132.116 27.776 132.804 27.847 133.514 27.847V27.3717C132.946 27.2532 132.709 26.9712 132.709 26.2577V23.0062H132.757L135.199 25.689C135.603 26.1382 135.887 26.6874 135.887 26.945C135.887 27.1822 135.719 27.3717 135.508 27.3717V27.847C136.317 27.847 137.12 27.776 137.926 27.776C138.615 27.776 139.304 27.8225 139.99 27.847V27.3717Z" fill="black"/>
<path d="M41.9688 32.802H139.999V32.4219H41.9688V32.802Z" fill="black"/>
</g>
<defs>
<clipPath id="clip0_30732_10782">
<rect width="140" height="44" fill="white"/>
</clipPath>
</defs>
</svg>
