<svg width="140" height="44" viewBox="0 0 140 44" fill="none" xmlns="http://www.w3.org/2000/svg">
<g clip-path="url(#clip0_30732_10660)">
<g clip-path="url(#clip1_30732_10660)">
<path d="M25.3906 23.1901C25.8489 23.3442 26.3824 23.5734 26.9909 23.8776C28.0577 24.4901 28.9704 25.3277 29.737 26.3946C30.6536 27.9197 31.108 29.7492 31.108 31.8828C31.108 39.2044 26.6827 42.8633 17.8398 42.8633H0.687514C0.229171 42.8633 0 42.6341 0 42.1758V6.9466C0 6.48826 0.229171 6.25909 0.687514 6.25909H18.7604C21.9649 6.25909 24.5529 7.14021 26.5365 8.89061C28.516 10.645 29.5117 12.9722 29.5117 15.8685C29.5117 17.5478 29.1285 19.0334 28.3698 20.3294C27.6033 21.6294 26.6115 22.5816 25.3906 23.1901ZM17.6146 37.6002C20.2066 37.6002 22.1111 37.1814 23.332 36.3438C24.549 35.5061 25.1614 34.056 25.1614 31.9974C25.1614 29.9388 24.549 28.4927 23.332 27.651C22.1111 26.8134 20.2026 26.3946 17.6146 26.3946H6.86329C6.25085 26.3946 5.9466 26.6237 5.9466 27.0821V36.9206C5.9466 37.379 6.25085 37.6081 6.86329 37.6081H17.6146V37.6002ZM6.86329 11.5221C6.40494 11.5221 6.17577 11.7513 6.17577 12.2096V20.444C6.17577 20.9023 6.40494 21.1315 6.86329 21.1315H17.3854C21.3485 21.1315 23.332 19.5313 23.332 16.3268C23.332 13.1224 21.3485 11.5221 17.3854 11.5221H6.86329ZM62.4532 23.1901C62.9115 23.3442 63.3698 23.5734 63.8242 23.8776C65.0412 24.4901 65.9579 25.3277 66.5703 26.3946C67.6372 27.9197 68.1706 29.7492 68.1706 31.8828C68.1706 39.2044 63.7452 42.8633 54.9023 42.8633H37.7461C37.2878 42.8633 37.0586 42.6341 37.0586 42.1758V6.9466C37.0586 6.48826 37.2878 6.25909 37.7461 6.25909H55.819C58.8694 6.25909 61.4219 7.14021 63.4844 8.89061C65.543 10.645 66.5743 12.9722 66.5743 15.8685C66.5743 17.5478 66.191 19.0334 65.4324 20.3294C64.6619 21.6294 63.6701 22.5816 62.4532 23.1901ZM43.6927 11.5221C43.2344 11.5221 43.0052 11.7513 43.0052 12.2096V20.444C43.0052 20.9023 43.2344 21.1315 43.6927 21.1315H54.444C58.4071 21.1315 60.3906 19.5313 60.3906 16.3268C60.3906 13.1224 58.4071 11.5221 54.444 11.5221H43.6927ZM54.6732 37.6002C57.2652 37.6002 59.1697 37.1814 60.3906 36.3438C61.6076 35.5061 62.22 34.056 62.22 31.9974C62.22 29.9388 61.6076 28.4927 60.3906 27.651C59.1697 26.8134 57.2612 26.3946 54.6732 26.3946H43.6927C43.2344 26.3946 43.0052 26.6237 43.0052 27.0821V36.9206C43.0052 37.379 43.2344 37.6081 43.6927 37.6081H54.6732V37.6002ZM100.883 6.71743C101.033 6.41319 101.187 6.25909 101.341 6.25909H107.288C107.438 6.25909 107.592 6.33811 107.746 6.48826C107.896 6.64236 107.896 6.79645 107.746 6.9466L88.7604 42.6341C88.6063 42.7882 88.4167 42.8633 88.1875 42.8633C87.9583 42.8633 87.7647 42.7882 87.6146 42.6341L68.6289 6.9466C68.4748 6.79645 68.4353 6.64236 68.5143 6.48826C68.5894 6.33811 68.7791 6.25909 69.0873 6.25909H74.8047C75.1089 6.25909 75.3381 6.41319 75.4922 6.71743L87.6146 29.5951C87.6146 29.7492 87.7647 29.8242 88.0729 29.8242C88.3772 29.8242 88.6063 29.7492 88.7604 29.5951L100.883 6.71743ZM107.746 37.1459C107.592 37.4541 107.363 37.6042 107.059 37.6042H101.112C100.958 37.6042 100.843 37.5291 100.768 37.375C100.689 37.2249 100.654 37.0708 100.654 36.9167L119.643 1.22917C119.793 1.07902 120.023 1 120.331 1C120.635 1 120.864 1.07902 121.018 1.22917L140 36.9167C140 37.0708 139.96 37.2249 139.885 37.375C139.806 37.5291 139.692 37.6042 139.542 37.6042H133.595C133.287 37.6042 133.058 37.4541 132.908 37.1459L121.01 14.2682C120.856 13.964 120.627 13.8099 120.323 13.8099C120.015 13.8099 119.786 13.964 119.635 14.2682L107.746 37.1459Z" fill="#004580"/>
</g>
</g>
<defs>
<clipPath id="clip0_30732_10660">
<rect width="140" height="44" fill="white"/>
</clipPath>
<clipPath id="clip1_30732_10660">
<rect width="140" height="41.8633" fill="white" transform="translate(0 1)"/>
</clipPath>
</defs>
</svg>
