<svg width="140" height="44" viewBox="0 0 140 44" fill="none" xmlns="http://www.w3.org/2000/svg">
<g clip-path="url(#clip0_30732_10963)">
<path d="M134 0H6C2.68629 0 0 2.68629 0 6V38C0 41.3137 2.68629 44 6 44H134C137.314 44 140 41.3137 140 38V6C140 2.68629 137.314 0 134 0Z" fill="#E8EAF0"/>
<path d="M86.0222 10.6656C84.18 6.81206 80.7842 3.89458 76.7104 2.65619C75.2795 2.22195 73.7906 2 72.2794 2C66.4497 2 61.0572 5.39997 58.5395 10.6624C58.2921 11.177 58.5106 11.7978 59.0252 12.0423C59.5395 12.29 60.1602 12.0713 60.4045 11.5566C62.5813 7.00828 67.2407 4.07151 72.2759 4.07151C73.5815 4.07151 74.8679 4.26129 76.1025 4.63764C79.6236 5.70553 82.556 8.23059 84.1478 11.5598C84.3245 11.9329 84.6975 12.1485 85.0835 12.1485C85.2347 12.1485 85.3857 12.1163 85.5304 12.0455C86.0448 11.7978 86.2636 11.1803 86.0159 10.6656H86.0222Z" fill="url(#paint0_linear_30732_10963)"/>
<path d="M84.5667 24.4334C84.0972 24.1085 83.4508 24.2275 83.1262 24.6971C82.9494 24.9513 82.7627 25.2055 82.5697 25.4435C80.0553 28.5892 76.3093 30.3971 72.2867 30.3971H59.1353V25.2858C59.1353 24.7132 58.6723 24.25 58.0999 24.25C57.5276 24.25 57.0646 24.7132 57.0646 25.2858V30.3971H53.0677C49.7236 30.3971 47 33.1182 47 36.4667C47 38.0879 47.6302 39.6126 48.7781 40.7577C49.9228 41.9029 51.447 42.5364 53.0677 42.5364C56.4118 42.5364 59.1353 39.8152 59.1353 36.4667V32.4686H72.2899C76.9458 32.4686 81.2837 30.3777 84.1905 26.7366C84.4123 26.4599 84.6277 26.1671 84.8305 25.8745C85.1551 25.4047 85.0361 24.7583 84.5667 24.4334ZM57.0646 36.4667C57.0646 38.6702 55.2702 40.465 53.0677 40.465C52.0002 40.465 50.9969 40.0501 50.2412 39.2942C49.4856 38.5382 49.0708 37.5347 49.0708 36.4667C49.0708 34.2634 50.8649 32.4686 53.0677 32.4686H57.0646V36.4667Z" fill="url(#paint1_linear_30732_10963)"/>
<path d="M72.1956 14.1628C71.7614 14.1628 71.4079 14.4811 71.3435 14.8961C70.6842 14.4297 69.8835 14.1562 69.0155 14.1562C66.7809 14.1562 64.9705 15.9672 64.9705 18.2027C64.9705 20.4382 66.7809 22.2493 69.0155 22.2493C69.8835 22.2493 70.6842 21.9726 71.3404 21.5095C71.3982 21.9309 71.7551 22.2558 72.1923 22.2558C72.6716 22.2558 73.0575 21.8698 73.0575 21.3904V15.028C73.0575 14.5486 72.6716 14.1628 72.1923 14.1628H72.1956ZM69.0155 20.5156C67.7389 20.5156 66.7004 19.4766 66.7004 18.1995C66.7004 16.9225 67.7389 15.8836 69.0155 15.8836C70.292 15.8836 71.3307 16.9225 71.3307 18.1995C71.3307 19.4766 70.292 20.5156 69.0155 20.5156ZM50.4331 15.0215V21.3841C50.4331 21.8633 50.0473 22.2493 49.5682 22.2493C49.089 22.2493 48.7031 21.8633 48.7031 21.3841V15.0215C48.7031 14.5423 49.089 14.1562 49.5682 14.1562C50.0473 14.1562 50.4331 14.5423 50.4331 15.0215ZM86.08 15.0215V21.3841C86.08 21.8633 85.6944 22.2493 85.2151 22.2493C84.7361 22.2493 84.35 21.8633 84.35 21.3841V15.0215C84.35 14.5423 84.7361 14.1562 85.2151 14.1562C85.6944 14.1562 86.08 14.5423 86.08 15.0215ZM78.575 14.1562C76.3435 14.1562 74.53 15.9705 74.53 18.2027C74.53 20.4351 76.3435 22.2493 78.575 22.2493C79.4337 22.2493 80.2312 21.9792 80.884 21.5223C80.8132 22.735 79.8034 23.7 78.575 23.7C77.8644 23.7 77.202 23.3783 76.7584 22.8186C76.4626 22.4423 75.919 22.3812 75.5431 22.6771C75.1668 22.9731 75.1055 23.5166 75.4014 23.8929C76.1733 24.8708 77.3308 25.4306 78.575 25.4306C80.8066 25.4306 82.6202 23.6163 82.6202 21.3841V18.2027C82.6202 15.9705 80.8066 14.1562 78.575 14.1562ZM80.8902 18.2027C80.8902 19.4799 79.8517 20.5188 78.575 20.5188C77.2986 20.5188 76.2599 19.4799 76.2599 18.2027C76.2599 16.9257 77.2986 15.8868 78.575 15.8868C79.8517 15.8868 80.8902 16.9257 80.8902 18.2027ZM63.5039 16.7521V21.3808C63.5039 21.8601 63.1152 22.2461 62.6392 22.2461C62.1632 22.2461 61.7742 21.8601 61.7742 21.3808V16.7521C61.7742 16.276 61.3852 15.8868 60.9092 15.8868C60.4333 15.8868 60.0441 16.276 60.0441 16.7521V20.0362C60.0441 21.2554 59.0538 22.2461 57.8353 22.2461C56.6165 22.2461 55.6262 21.2554 55.6262 20.0362V16.7521C55.6262 16.276 55.2371 15.8868 54.7611 15.8868C54.2854 15.8868 53.8963 16.276 53.8963 16.7521V21.3808C53.8963 21.8601 53.5072 22.2461 53.0312 22.2461C52.5554 22.2461 52.1664 21.8601 52.1664 21.3808V16.7521C52.1664 15.3207 53.3302 14.1562 54.7611 14.1562C56.1921 14.1562 57.3561 15.3207 57.3561 16.7521V20.0362C57.3561 20.2968 57.5748 20.5156 57.8353 20.5156C58.0956 20.5156 58.3141 20.2968 58.3141 20.0362V16.7521C58.3141 15.3207 59.4783 14.1562 60.9092 14.1562C62.3402 14.1562 63.5039 15.3207 63.5039 16.7521ZM93.0032 16.7521V21.3808C93.0032 21.8601 92.6141 22.2461 92.1381 22.2461C91.6623 22.2461 91.2732 21.8601 91.2732 21.3808V16.7521C91.2732 16.276 90.884 15.8868 90.4082 15.8868C89.9324 15.8868 89.5433 16.276 89.5433 16.7521V21.3808C89.5433 21.8601 89.1542 22.2461 88.6781 22.2461C88.2024 22.2461 87.8133 21.8601 87.8133 21.3808V16.7521C87.8133 15.3207 88.9771 14.1562 90.4082 14.1562C91.8391 14.1562 93.0032 15.3207 93.0032 16.7521Z" fill="#1A1A1A"/>
</g>
<defs>
<linearGradient id="paint0_linear_30732_10963" x1="86.1116" y1="12.1505" x2="74.7336" y2="-1.63945" gradientUnits="userSpaceOnUse">
<stop stop-color="#01EBBF"/>
<stop offset="1" stop-color="#01F685"/>
</linearGradient>
<linearGradient id="paint1_linear_30732_10963" x1="47.363" y1="25.4619" x2="70.3672" y2="43.828" gradientUnits="userSpaceOnUse">
<stop stop-color="#01EBBF"/>
<stop offset="1" stop-color="#01F685"/>
</linearGradient>
<clipPath id="clip0_30732_10963">
<rect width="140" height="44" fill="white"/>
</clipPath>
</defs>
</svg>
