<svg width="29" height="23" viewBox="0 0 29 23" fill="none" xmlns="http://www.w3.org/2000/svg">
<path d="M25.3051 0.0561638C25.4571 0.112764 25.472 0.311646 25.4504 0.472384C25.241 2.0345 23.9466 3.13298 23.248 4.49198C22.9788 5.23719 22.3738 5.71478 21.8724 6.33732C21.7263 6.51862 21.5801 6.70023 21.4211 6.87025C21.2082 7.0979 20.9997 7.33446 20.8011 7.57608C20.4804 7.96639 20.4112 8.48004 20.8156 8.78279C20.9812 8.90681 21.1508 9.04085 21.2955 9.18877C21.5601 9.45923 21.6826 9.81553 21.9216 10.1047C22.0385 10.2461 22.2402 10.2968 22.3531 10.4414C22.5207 10.6561 22.8114 10.7839 22.99 10.9895C23.3834 11.4425 23.7339 11.906 24.0779 12.3836C24.2763 12.6592 24.3994 12.9847 24.5936 13.2633C24.7251 13.452 24.8891 13.6177 25.0141 13.8108C25.1492 14.0194 25.2788 14.2312 25.4087 14.4438C25.7999 15.0841 26.0684 15.8155 26.4667 16.4514C26.7699 16.9356 27.0154 17.4767 27.2702 17.9881C27.3863 18.2212 27.5213 18.4459 27.6216 18.6863C27.9157 19.3909 28.1549 20.1093 28.5326 20.7788C28.5886 20.8967 28.5609 21.0146 28.508 21.1196C28.4551 21.2247 28.3663 21.3354 28.2535 21.302C28.0342 21.2371 27.8069 21.1567 27.5947 21.0713C26.7302 20.7234 25.8993 20.2595 25.0877 19.7674C24.4348 19.2404 23.7353 18.8195 23.0586 18.3441C22.4696 17.9303 21.996 17.3216 21.3548 16.9945C20.4617 16.4408 19.754 15.6505 18.8543 15.1325C18.6179 14.9517 18.3816 14.7762 18.1448 14.5967C17.8032 14.3378 17.4348 14.1045 17.1141 13.8201C16.9965 13.7158 16.839 13.6524 16.7078 13.5657C16.1998 13.2302 15.7197 12.8212 15.2076 12.4937C15.0603 12.3994 14.9551 12.4749 14.8937 12.6387C14.8853 12.6612 14.8691 12.6784 14.8526 12.6958C14.7453 12.8083 14.6721 12.9349 14.6174 13.0689C14.2981 13.8512 14.1976 14.7591 13.8016 15.5055C13.7709 15.5634 13.7403 15.6214 13.7106 15.6796C13.5585 15.978 13.4281 16.2882 13.2687 16.5828C12.7993 17.4503 12.3659 18.3288 11.864 19.178C11.1271 20.1549 10.7119 21.3204 9.74023 22.1446C9.62207 22.2449 9.51239 22.3552 9.4015 22.4634C9.28208 22.58 9.15515 22.6726 9.02165 22.761C8.84602 22.8772 8.58307 22.9915 8.4288 22.8481C8.37996 22.8027 8.36212 22.7322 8.34556 22.6676C8.34008 22.6462 8.33593 22.6243 8.33281 22.6018C8.27084 22.1567 8.32827 21.6223 8.33644 21.173C8.33827 21.0725 8.34162 20.9712 8.35383 20.8702C8.36216 20.8012 8.35759 20.7309 8.33407 20.6656C8.31797 20.6209 8.30977 20.5735 8.31276 20.5261C8.32794 20.2852 8.39082 20.0606 8.44014 19.8346C8.54525 19.353 8.59901 18.8452 8.67232 18.3577C8.70722 18.1257 8.76141 17.8941 8.83468 17.6711C8.9085 17.4465 8.96825 17.2175 9.01358 16.9855C9.06806 16.7067 9.1615 16.4352 9.22467 16.1583C9.23853 16.0975 9.2492 16.0361 9.25663 15.9742C9.28871 15.7071 9.2988 15.4312 9.38235 15.1754C9.39565 15.1347 9.40992 15.0943 9.42591 15.0546C9.54938 14.7481 9.73588 14.4726 9.75188 14.1426C9.75549 14.0681 9.77483 13.9918 9.79861 13.9212C10.1085 13.0008 10.4724 12.1088 10.7159 11.1681C10.7298 11.1143 10.7428 11.0456 10.6985 11.0121C10.6496 10.975 10.5871 10.9736 10.5258 10.9718C10.1921 10.9619 9.86848 10.9883 9.54969 10.9962C8.90509 11.0123 8.2598 10.909 7.61693 10.8591C6.86611 10.8009 6.1197 10.6921 5.38279 10.5334C5.20879 10.4984 5.02074 10.4858 4.83289 10.4664C4.31707 10.4129 3.74497 10.4355 3.29085 10.1851C3.03597 10.0588 2.75104 10.0083 2.46724 9.95209C1.95679 9.85099 1.43237 9.68952 0.936221 9.53261C0.910942 9.52462 0.885435 9.5173 0.859604 9.51092C0.776022 9.49028 0.68802 9.49719 0.603414 9.48126C0.377711 9.43875 0.223726 9.24608 0.0493759 9.09609C0.0187492 9.06975 0 9.03181 0 8.99141C0 8.96337 0.00898223 8.93584 0.0260027 8.91355C0.630159 8.12243 1.57514 7.89893 2.42683 7.59082C3.27968 7.32514 4.22854 7.30282 5.11711 7.12198C6.26159 6.92746 7.44311 7.10464 8.59878 7.21461C9.02202 7.25488 9.44507 7.29147 9.87254 7.30282C10.1719 7.34445 10.4501 7.47233 10.7447 7.49109C10.806 7.495 10.8531 7.44169 10.8484 7.38047C10.8468 7.36036 10.8396 7.34109 10.8277 7.32483L10.1709 6.4306C9.98749 6.18091 9.83851 5.90805 9.69028 5.63601C9.40321 5.10918 9.03968 4.61613 8.80487 4.07017C8.67921 3.778 8.53453 3.47293 8.5396 3.15492C8.54151 3.03494 8.54675 2.91312 8.51928 2.80023C8.49669 2.70737 8.4535 2.61159 8.4969 2.52644C8.56495 2.39291 8.70112 2.29466 8.85065 2.30479C8.87299 2.3063 8.89537 2.30833 8.91776 2.3103C9.14332 2.33013 9.3859 2.28551 9.60405 2.34616C9.98169 2.45117 10.3477 2.57189 10.7257 2.66544C10.9396 2.71837 11.1525 2.77738 11.3568 2.85977C11.8922 3.07561 12.426 3.31149 12.8999 3.66369C13.4554 4.05795 14.1016 4.34219 14.6195 4.82403C14.9095 5.09385 15.1911 5.47757 15.5746 5.37832C15.8863 5.33731 16.0705 5.00409 16.3482 4.8567C16.9123 4.5573 17.5092 4.32336 18.0586 3.97552C18.1935 3.89014 18.3111 3.77918 18.4458 3.69352C18.5849 3.60504 18.739 3.53945 18.8765 3.45609C19.1519 3.28912 19.3691 3.00308 19.6619 2.86902C19.8104 2.80105 19.9586 2.73793 20.091 2.64225C20.2565 2.5226 20.4223 2.40161 20.5911 2.28616C20.9712 2.0261 21.4304 1.8926 21.8102 1.63203C22.3701 1.32693 22.9502 1.06085 23.5031 0.749674C23.8607 0.54842 24.1248 0.143333 24.5293 0.0742506C24.5838 0.0649334 24.6397 0.0581551 24.6954 0.0515881C24.8989 0.0275929 25.113 -0.0153617 25.3051 0.0561638Z" fill="#00A0DF"/>
<path d="M14.6735 16.4191C14.8849 16.4808 15.1194 16.3848 15.3273 16.4575C15.4806 16.5112 15.6621 16.5065 15.7585 16.6373C15.7703 16.6533 15.7813 16.6699 15.792 16.6867C15.958 16.9501 16.2052 17.1852 16.3157 17.4763C16.4171 17.7432 16.4973 18.0187 16.5675 18.2946C16.5966 18.4089 16.5823 18.5305 16.5969 18.6476C16.6184 18.8192 16.7276 18.9557 16.6987 19.1323C16.6931 19.1667 16.7062 19.2028 16.7365 19.2199C16.7583 19.2322 16.7724 19.2547 16.7732 19.2797C16.7795 19.47 16.7597 19.6598 16.7145 19.8441C16.674 20.009 16.6532 20.1791 16.6365 20.3481C16.6072 20.6452 16.4855 20.9154 16.351 21.1821C16.2631 21.3563 16.1401 21.5245 16.0118 21.6715C15.8911 21.8098 15.6688 21.7933 15.5423 21.9264C15.4997 21.9713 15.4613 22.0211 15.4238 22.0711C15.1658 22.4151 14.6694 22.5536 14.2404 22.5248C14.2126 22.523 14.1846 22.5208 14.1567 22.5187C13.9318 22.5012 13.6974 22.4586 13.4789 22.4027C13.2547 22.3453 13.0616 22.2016 12.8633 22.0822C12.7422 22.0093 12.6249 21.9257 12.5104 21.8369C12.29 21.666 12.1086 21.4391 11.9255 21.2288C11.7535 21.0313 11.8028 20.7508 11.7642 20.4917C11.7477 20.381 11.7219 20.2714 11.7086 20.1607C11.6831 19.9489 11.7111 19.7315 11.6876 19.5195L11.6867 19.5117C11.6665 19.33 11.676 19.1463 11.7146 18.9677L11.7603 18.7567C11.8359 18.4072 12.077 18.0817 12.2198 17.7538C12.3521 17.4501 12.5985 17.1919 12.8519 16.9784C13.0845 16.7825 13.3802 16.6682 13.6505 16.5241C13.7523 16.4699 13.861 16.4263 13.9762 16.4329C14.206 16.4462 14.4333 16.3442 14.653 16.4129C14.6598 16.415 14.6666 16.4171 14.6735 16.4191Z" fill="#E30613"/>
<path d="M15.1579 11.7457C15.3855 11.8216 15.5228 12.075 15.6192 12.2947C15.6283 12.3154 15.6371 12.3363 15.646 12.3571C15.7414 12.5816 15.8682 12.8076 15.9036 13.0489C15.9385 13.2869 15.8825 13.5292 15.7468 13.7278L15.6285 13.9008C15.49 14.1034 15.3061 14.2756 15.0756 14.3598C14.4235 14.5982 13.6123 14.6354 13.0732 14.1491C12.7501 13.8561 12.6417 13.4477 12.6911 13.0293C12.7023 12.9344 12.7303 12.8426 12.7634 12.753L12.8616 12.4872C12.9295 12.3032 13.06 12.1633 13.2316 12.0682C13.3626 11.9956 13.4627 11.8651 13.6042 11.8159C13.7642 11.7603 13.9374 11.7399 14.1119 11.7223C14.4009 11.6932 14.7019 11.6841 14.991 11.713C15.0492 11.7189 15.1057 11.7283 15.1579 11.7457Z" fill="#FFCC00"/>
</svg>
