<svg width="36" height="36" viewBox="0 0 36 36" fill="none" xmlns="http://www.w3.org/2000/svg">
<rect width="36" height="36" rx="18" fill="#FAFAFA"/>
<path d="M29.3886 21.9466C28.8185 21.9466 28.3224 21.8504 27.9004 21.6579C27.4858 21.4654 27.1786 21.1878 26.9787 20.825C26.7788 20.4548 26.7195 19.9995 26.801 19.459H28.5668C28.5372 19.6811 28.5594 19.8773 28.6334 20.0476C28.7148 20.2105 28.8407 20.3363 29.011 20.4252C29.1813 20.5066 29.3775 20.5474 29.5996 20.5474C29.8291 20.5474 30.029 20.5103 30.1993 20.4363C30.3696 20.3549 30.5028 20.2438 30.5991 20.1031C30.7027 19.9551 30.7583 19.7848 30.7657 19.5923C30.7731 19.459 30.7471 19.3406 30.6879 19.2369C30.6361 19.1258 30.5547 19.0296 30.4436 18.9482C30.3325 18.8593 30.203 18.7816 30.0549 18.7149C29.9142 18.6483 29.7588 18.5854 29.5885 18.5261C29.4182 18.4595 29.2442 18.3966 29.0665 18.3374C28.5409 18.1523 28.1411 17.9005 27.8671 17.5822C27.5932 17.2638 27.4673 16.8677 27.4895 16.3939C27.5117 15.8904 27.6598 15.4536 27.9337 15.0834C28.2077 14.7058 28.5742 14.4171 29.0332 14.2172C29.4996 14.0099 30.0216 13.9062 30.5991 13.9062C31.1247 13.9062 31.5727 13.9951 31.9428 14.1728C32.3204 14.3431 32.6018 14.5985 32.7869 14.9391C32.972 15.2796 33.0349 15.6979 32.9757 16.194H31.1877C31.2173 16.0089 31.1951 15.8497 31.121 15.7164C31.0544 15.5832 30.9507 15.4832 30.8101 15.4166C30.6694 15.3426 30.5028 15.3055 30.3103 15.3055C30.1178 15.3055 29.9439 15.3389 29.7884 15.4055C29.6403 15.4721 29.5218 15.5684 29.433 15.6942C29.3442 15.8201 29.296 15.9682 29.2886 16.1385C29.2812 16.2643 29.2997 16.3754 29.3442 16.4716C29.396 16.5605 29.4663 16.6419 29.5552 16.7159C29.644 16.7826 29.7514 16.8492 29.8772 16.9158C30.0031 16.9751 30.14 17.0343 30.2881 17.0935C30.4436 17.1454 30.6028 17.2009 30.7657 17.2601C31.0248 17.349 31.2654 17.4563 31.4875 17.5822C31.7096 17.708 31.9058 17.8561 32.0761 18.0264C32.2464 18.1893 32.376 18.3855 32.4648 18.615C32.5536 18.8445 32.5907 19.1073 32.5759 19.4035C32.5611 19.9069 32.413 20.3512 32.1316 20.7361C31.8577 21.1137 31.4838 21.4099 31.01 21.6246C30.5361 21.8393 29.9957 21.9466 29.3886 21.9466Z" fill="url(#paint0_linear_30595_9654)"/>
<path d="M18.7266 21.8129L22.9244 14.0391H24.8457L26.2894 21.8129H24.5348L23.5575 15.8937L20.4701 21.8129H18.7266ZM20.1925 20.1138L20.8477 18.8366H25.0234L25.2233 20.1138H20.1925Z" fill="url(#paint1_linear_30595_9654)"/>
<path d="M15.5214 21.9466C14.9513 21.9466 14.4553 21.8504 14.0332 21.6579C13.6186 21.4654 13.3114 21.1878 13.1115 20.825C12.9116 20.4548 12.8524 19.9995 12.9338 19.459H14.6996C14.67 19.6811 14.6922 19.8773 14.7662 20.0476C14.8477 20.2105 14.9735 20.3363 15.1438 20.4252C15.3141 20.5066 15.5103 20.5474 15.7324 20.5474C15.9619 20.5474 16.1618 20.5103 16.3321 20.4363C16.5024 20.3549 16.6356 20.2438 16.7319 20.1031C16.8355 19.9551 16.8911 19.7848 16.8985 19.5923C16.9059 19.459 16.88 19.3406 16.8207 19.2369C16.7689 19.1258 16.6875 19.0296 16.5764 18.9482C16.4654 18.8593 16.3358 18.7816 16.1877 18.7149C16.047 18.6483 15.8916 18.5854 15.7213 18.5261C15.551 18.4595 15.377 18.3966 15.1993 18.3374C14.6737 18.1523 14.2739 17.9005 13.9999 17.5822C13.726 17.2638 13.6001 16.8677 13.6223 16.3939C13.6446 15.8904 13.7926 15.4536 14.0666 15.0834C14.3405 14.7058 14.707 14.4171 15.166 14.2172C15.6324 14.0099 16.1544 13.9062 16.7319 13.9062C17.2575 13.9062 17.7055 13.9951 18.0757 14.1728C18.4532 14.3431 18.7346 14.5985 18.9197 14.9391C19.1048 15.2796 19.1677 15.6979 19.1085 16.194H17.3205C17.3501 16.0089 17.3279 15.8497 17.2538 15.7164C17.1872 15.5832 17.0836 15.4832 16.9429 15.4166C16.8022 15.3426 16.6356 15.3055 16.4431 15.3055C16.2506 15.3055 16.0767 15.3389 15.9212 15.4055C15.7731 15.4721 15.6547 15.5684 15.5658 15.6942C15.477 15.8201 15.4288 15.9682 15.4214 16.1385C15.414 16.2643 15.4325 16.3754 15.477 16.4716C15.5288 16.5605 15.5991 16.6419 15.688 16.7159C15.7768 16.7826 15.8842 16.8492 16.01 16.9158C16.1359 16.9751 16.2729 17.0343 16.4209 17.0935C16.5764 17.1454 16.7356 17.2009 16.8985 17.2601C17.1576 17.349 17.3982 17.4563 17.6203 17.5822C17.8424 17.708 18.0386 17.8561 18.2089 18.0264C18.3792 18.1893 18.5088 18.3855 18.5976 18.615C18.6865 18.8445 18.7235 19.1073 18.7087 19.4035C18.6939 19.9069 18.5458 20.3512 18.2645 20.7361C17.9905 21.1137 17.6166 21.4099 17.1428 21.6246C16.669 21.8393 16.1285 21.9466 15.5214 21.9466Z" fill="url(#paint2_linear_30595_9654)"/>
<path d="M9.94531 21.8129L11.3113 14.0391H12.9771L11.6111 21.8129H9.94531Z" fill="url(#paint3_linear_30595_9654)"/>
<path d="M4.43261 21.8129L3 14.0391H4.77688L5.76527 20.1138L8.89703 14.0391H10.6739L6.49824 21.8129H4.43261Z" fill="url(#paint4_linear_30595_9654)"/>
<defs>
<linearGradient id="paint0_linear_30595_9654" x1="32.9972" y1="21.9466" x2="25.8451" y2="21.0394" gradientUnits="userSpaceOnUse">
<stop stop-color="#FA6C12"/>
<stop offset="1" stop-color="#FF77D7"/>
</linearGradient>
<linearGradient id="paint1_linear_30595_9654" x1="26.2894" y1="21.8129" x2="17.6877" y2="20.4434" gradientUnits="userSpaceOnUse">
<stop stop-color="#FA6C12"/>
<stop offset="1" stop-color="#FF77D7"/>
</linearGradient>
<linearGradient id="paint2_linear_30595_9654" x1="19.13" y1="21.9466" x2="11.9779" y2="21.0394" gradientUnits="userSpaceOnUse">
<stop stop-color="#FA6C12"/>
<stop offset="1" stop-color="#FF77D7"/>
</linearGradient>
<linearGradient id="paint3_linear_30595_9654" x1="12.9771" y1="21.8129" x2="9.45579" y2="21.5882" gradientUnits="userSpaceOnUse">
<stop stop-color="#FA6C12"/>
<stop offset="1" stop-color="#FF77D7"/>
</linearGradient>
<linearGradient id="paint4_linear_30595_9654" x1="10.6739" y1="21.8129" x2="1.95229" y2="20.4039" gradientUnits="userSpaceOnUse">
<stop stop-color="#FA6C12"/>
<stop offset="1" stop-color="#FF77D7"/>
</linearGradient>
</defs>
</svg>
