<svg width="140" height="44" viewBox="0 0 140 44" fill="none" xmlns="http://www.w3.org/2000/svg">
<g clip-path="url(#clip0_30732_10830)">
<path d="M78.7749 28.9059V35.1358C75.3154 36.8682 72.026 37.7339 68.7388 37.7339C59.6551 37.7339 54.2031 32.3686 54.2031 25.6177C54.2031 18.3456 60.433 12.2891 68.3921 12.2891C70.3813 12.2891 71.8527 12.6336 73.4107 13.1558C74.5364 13.5004 75.2276 13.9337 75.9189 13.9337C76.5256 13.9337 76.6989 12.8947 76.7856 12.2891H77.6513L78.4303 20.6836H77.3913C76.9568 19.04 76.181 17.6543 75.1399 16.703C73.4973 15.0594 71.247 14.1927 68.6521 14.1927C63.2012 14.1927 59.9996 18.5211 59.9996 25.012C59.9996 31.4152 63.8936 35.8313 69.0844 35.8313C70.6435 35.8313 72.026 35.4846 73.7574 34.7056V28.2992C73.7574 26.2212 73.4107 25.4432 70.4691 25.4432V24.493H81.4575V25.4432C78.6903 25.4432 78.7749 26.3079 78.7749 28.9059Z" fill="#003671"/>
<path d="M48.5873 18.6889V37.2972H47.1171L28.512 18.0822C28.5987 18.6012 28.5987 19.0356 28.5987 19.5535V31.2385C28.5987 34.8714 28.5987 36.1715 31.888 36.1715V37.1217H23.1499V36.1715C26.4361 36.1715 26.4361 34.6145 26.4361 31.2385V17.911C26.4361 15.9196 26.4361 13.756 22.9766 13.756V12.8047H31.1967L46.5114 28.5538C46.4237 28.1236 46.4237 27.8625 46.4237 27.2579V18.6889C46.4237 15.2262 46.5114 13.756 43.2221 13.756V12.8047H51.9623V13.756C48.7607 13.756 48.5873 15.1406 48.5873 18.6889Z" fill="#003671"/>
<path d="M6.26562 37.1217V36.1715C8.34366 36.1715 9.81287 35.9981 9.81287 32.9688V16.9586C9.81287 13.8416 8.68824 13.756 6.26562 13.756V12.8047H18.5531V13.756C16.0438 13.756 15.0048 13.8416 15.0048 16.9586V32.9688C15.0048 35.9981 16.3028 36.1715 18.5531 36.1715V37.1217H6.26562Z" fill="#003671"/>
<path d="M87.6802 37.2161H122.759L124.323 34.5671L125.289 29.2592L123.439 23.5067L120.99 19.9675L119.741 19.5647L118.734 20.0067L118.333 21.6159L113.502 22.3394L110.971 20.4495L108.717 14.8173L107.351 10.9146L107.067 9.30716L106.424 8.54177L102.923 7.97863L100.793 9.02381L98.2175 7.97863L95.965 7.89844L95.1221 9.30716L94.5982 10.3122L93.8738 12.1228L93.2714 14.7371L93.7134 18.9205L93.9566 22.0186L93.7936 23.8274L94.5581 26.8044L93.7535 29.2173L92.5069 32.3965L91.7014 32.7992L90.535 32.2753L89.2885 32.9596L87.9609 33.4827L87.1562 34.6891L87.2765 36.5389L87.6802 37.2161Z" fill="white"/>
<path d="M124.138 13.4146L123.177 12.5681L120.7 12.0237L120.586 11.1166L122.28 10.6328L123.345 11.4784L124.305 11.6602L124.811 11.7199L126.391 13.7158L124.138 13.4146Z" fill="white"/>
<path d="M103.529 18.1086V17.6238H102.64L102.561 17.7842L103.529 18.1086ZM99.0139 17.6238C98.7725 17.3824 98.4517 17.6238 98.0481 17.5427C98.0481 17.6238 97.9679 17.8662 98.2084 18.0257C98.5319 17.7842 98.9311 17.6238 99.0139 17.6238ZM104.575 13.0288C104.575 13.0288 104.735 13.0288 104.575 12.9477L102.721 12.7864C102.479 12.9477 102.157 12.9477 102.076 13.1909L101.915 13.2711C102.076 13.9171 102.076 14.6415 102.076 15.366C102.399 15.447 102.801 15.6894 102.801 16.1732C103.124 16.3345 103.529 16.4138 103.768 16.6562C103.93 16.576 104.091 16.3345 104.171 16.093C103.768 15.6894 103.042 15.9318 103.042 15.2065L102.561 14.965C102.561 14.4785 102.561 13.9964 102.399 13.6739L102.561 13.5126C102.561 13.6739 102.64 13.7541 102.801 13.9171C103.124 13.9171 103.529 13.9964 103.768 13.7541C103.93 13.6739 103.93 13.2711 104.171 13.2711C104.252 13.2711 104.494 13.2711 104.575 13.0288ZM99.659 13.1909C99.659 13.0288 99.4978 12.8675 99.2554 12.7864H97.403H97.2408C97.2408 13.0288 97.4831 13.2711 97.7246 13.2711C97.7246 13.5126 97.9679 13.6739 98.1283 13.7541C98.2886 13.9171 98.4517 13.9171 98.6923 13.7541C98.9311 13.9171 99.0139 13.5126 99.095 13.7541C99.095 14.2379 99.095 14.4785 99.0139 14.883C98.9311 15.447 98.3697 15.366 98.0481 15.6894C97.9679 15.8489 97.7246 16.3345 97.9679 16.576C98.2084 16.4138 98.4517 16.3345 98.7725 16.1732C98.7725 15.9318 99.095 15.6894 99.4158 15.447C99.4158 14.7217 99.659 13.9964 99.659 13.1909ZM100.384 11.2565C100.144 11.0934 99.659 11.3358 99.4158 11.498C99.095 11.5782 98.7725 11.8187 98.7725 12.062H99.7392C99.8996 11.8187 100.144 11.498 100.384 11.2565ZM103.204 12.062C103.204 11.8187 103.124 11.8187 103.042 11.7403C102.64 11.7403 102.64 11.0934 102.319 11.2565C102.076 11.2565 101.915 11.0934 101.756 11.2565C101.674 11.3358 101.756 11.3358 101.836 11.3358C102.319 11.3358 102.076 11.9809 102.399 12.062H103.204ZM106.025 11.5782C106.188 11.0934 106.269 10.369 105.944 9.8861C105.703 9.64463 105.299 9.40227 104.897 9.1599L104.252 9.40227C103.93 9.64463 103.768 9.8861 103.768 10.369C104.333 10.6114 104.979 11.2565 105.219 11.8187H105.461C105.703 11.5782 105.944 11.8187 106.025 11.5782ZM98.5319 10.369C98.4517 9.56265 97.4831 9.40227 97.0011 9.1599H96.7587C96.0334 9.32119 95.8713 10.0456 95.7911 10.6114C96.0334 11.3358 96.5164 10.852 96.9182 11.3358C97.2408 11.0934 98.1283 10.5303 98.5319 10.369ZM88.62 35.0355C88.539 35.0355 88.2966 34.7931 88.0569 34.7931C87.8128 35.2761 88.0569 35.6806 88.0569 36.2429C88.0569 36.4059 87.9758 36.7303 87.9758 36.7303C87.8128 36.7303 87.4911 36.3239 87.3307 36.0834V34.7138L88.1353 33.7453C88.62 34.067 88.7804 34.5517 88.62 35.0355ZM90.8761 34.067C90.8761 34.4688 90.7959 34.7931 90.5536 35.0355C90.4734 34.7138 90.2319 34.3093 89.8283 34.3093C89.5066 34.9526 89.4246 35.1941 89.7472 36.2429C89.5066 36.4059 89.2634 36.4879 89.021 36.7303C88.8615 36.3239 88.7804 35.7599 88.7804 35.4382C88.7804 34.8742 88.9399 34.3093 89.1012 33.8255C89.2634 33.5056 89.5066 33.1011 89.7472 32.8569L90.6347 32.7785C90.3121 32.8569 90.3121 33.2632 90.3121 33.5056C90.4734 33.584 90.8761 33.6633 90.8761 34.067ZM93.7764 34.5517C93.7764 35.2761 92.7286 36.2429 92.7286 36.2429C92.7286 35.7599 92.8908 35.2761 92.971 34.7931C92.971 34.7931 92.6484 34.4688 92.2457 34.4688C92.0042 34.5517 92.0042 34.7931 91.924 35.0355C91.6816 35.5193 91.1978 35.9996 91.0383 36.4879C90.959 36.4879 90.959 36.4059 90.959 36.4059C90.959 35.6806 91.0383 34.1471 91.6014 33.584C92.0862 33.1011 92.3258 33.1011 92.8097 33.0191L93.2944 33.1011L92.971 33.584C93.2944 33.7453 93.7764 34.067 93.7764 34.5517ZM107.396 34.7931L107.155 35.0355C106.913 34.7931 107.072 34.067 106.671 33.9859C106.269 33.9859 105.944 33.584 105.784 33.5056L106.025 33.3425C106.025 33.3425 106.269 33.2632 106.428 33.3425C106.59 33.5056 106.751 33.584 106.751 33.8255C106.913 33.9859 107.155 33.8255 107.315 33.9859C107.396 34.2282 107.476 34.5517 107.396 34.7931ZM110.298 33.584C110.216 33.8255 110.136 34.2282 110.055 34.5517C109.814 34.067 109.652 33.3425 109.088 33.3425C109.008 33.0191 108.928 32.7785 108.604 32.6155L107.88 32.5353C107.96 32.7785 108.444 32.8569 108.203 33.3425C108.444 33.584 108.765 33.584 108.928 33.9859C109.088 34.2282 108.928 34.5517 109.008 34.7931L108.444 35.0355C108.444 34.5517 108.604 33.8255 107.96 33.584C107.476 33.7453 107.396 33.1011 107.072 32.8569C106.913 32.7785 106.913 32.374 106.671 32.6155C106.269 32.8569 105.703 32.6155 105.299 32.8569L105.703 32.1325C106.025 31.8911 106.428 32.0514 106.751 31.8911L107.396 31.81C108.122 31.81 108.685 32.1325 109.331 32.374C109.652 32.6155 109.814 32.8569 109.814 33.2632C110.055 33.3425 110.379 33.3425 110.298 33.584ZM123.349 33.5056C123.188 33.7453 123.114 33.8255 123.03 33.9859C123.03 33.584 122.545 33.3425 122.226 32.6155L122.545 32.0514C122.87 32.1325 123.114 32.374 123.114 32.7785C123.114 32.8569 123.03 33.1011 123.114 33.2632C123.114 33.3425 123.349 33.3425 123.349 33.5056ZM96.1136 33.7453L95.8713 34.5517L95.3081 33.1011C94.5828 32.374 93.8584 32.2938 93.3737 32.0514C93.1322 31.8911 93.1322 32.1325 92.8908 32.0514C92.8908 31.81 92.971 31.5685 93.2133 31.327H93.6963L94.1792 31.5685C94.5017 31.81 95.0658 31.81 95.0658 32.2938C95.0658 32.456 94.9865 32.5353 95.1477 32.7785L96.0334 33.1011L96.1136 33.7453ZM120.773 32.8569C120.773 32.9389 120.613 33.1011 120.613 33.1011C120.212 32.8569 119.889 32.6983 119.403 32.6983C119.403 32.456 119.243 32.0514 119.082 32.0514C118.518 32.0514 118.597 32.2938 118.196 32.2938L118.922 31.5685C119 31.4081 119.082 31.4081 119.243 31.4081C119.484 31.5685 119.564 31.6496 119.807 31.6496C119.807 31.81 119.807 31.8911 119.729 32.1325C119.889 32.2938 120.13 32.1325 120.29 32.2938C120.532 32.374 120.773 32.5353 120.773 32.8569ZM111.264 33.3425H111.185C111.022 33.1011 110.944 32.8569 110.781 32.8569C111.022 31.8911 110.539 31.1649 110.379 30.3585L110.298 30.1188C110.618 30.5206 111.264 30.9234 111.185 31.4081C111.264 32.1325 111.346 32.7785 111.264 33.3425ZM97.403 32.5353L96.8389 33.1011C96.6794 32.8569 96.8389 32.374 96.5164 32.1325C96.5164 32.0514 96.7587 31.8911 96.6794 31.81C96.5164 31.6496 95.5505 31.327 95.5505 31.327C95.1477 31.0847 94.8243 30.8423 94.5017 30.4404C94.0999 30.3585 93.8584 30.6026 93.4539 30.6819C93.3737 30.6026 93.3737 30.4404 93.3737 30.4404C93.617 30.1972 93.6169 29.716 94.0999 29.716C94.3414 29.716 94.6639 29.716 94.9045 29.9557C95.2279 29.9557 95.3901 30.2801 95.6289 30.3585C96.0334 30.8423 96.356 30.9234 96.6794 31.1649C96.5966 31.4081 96.7587 31.5685 96.9182 31.6496C97.403 31.6496 97.2408 32.1325 97.403 32.5353ZM123.917 31.2459C123.917 31.7307 123.917 31.891 123.676 32.2938L123.114 31.5685C123.349 31.327 123.349 30.9234 123.595 30.6026C123.676 30.6026 123.917 31.1649 123.917 31.2459ZM109.573 31.81C109.17 31.5685 108.685 31.5685 108.444 31.1649C108.203 31.0847 107.88 31.0847 107.476 31.0847C107.155 31.1649 106.751 31.1649 106.428 31.1649C106.348 31.1649 106.428 31.0847 106.269 30.9234C105.784 31.1649 105.219 31.1649 104.735 31.6496L105.139 30.6819C105.461 30.6819 105.703 30.4404 105.944 30.4404C106.188 30.3585 106.509 30.3585 106.751 30.3585V30.4404C107.719 30.4404 108.765 30.3585 109.492 31.1649L109.573 31.81ZM121.662 31.0847C121.662 31.4081 121.582 31.4865 121.502 31.8911C120.854 31.81 120.938 31.1649 120.773 31.0847C120.45 30.6026 119.807 30.9234 119.323 30.9234C119.243 30.4404 119.484 30.4404 119.484 30.1972C119.729 30.1972 119.969 29.9557 120.212 30.1188C120.613 29.9557 120.854 30.3585 121.259 30.3585C121.419 30.6026 121.582 30.9234 121.662 31.0847ZM97.8057 29.8764C97.8057 30.1188 97.7246 31.1649 97.7246 31.1649C97.5633 30.5206 97.1606 29.9557 96.6794 29.9557C96.356 29.716 96.1136 29.4728 96.0334 29.2313C95.7911 28.9898 95.5505 29.1502 95.2279 28.9898C94.9045 28.9898 94.5017 28.9898 94.0999 29.1502V28.9898L94.6639 28.2628C95.3081 28.424 96.0334 28.2628 96.2758 28.7466C96.5966 28.9898 97.0011 29.1502 97.1606 29.3899V29.6341C97.3228 29.716 97.6453 29.7962 97.8057 29.8764ZM101.352 29.716C101.029 29.9557 100.706 29.9557 100.384 29.8764L99.8996 29.1502C100.221 29.2313 100.706 29.2313 101.111 29.1502L101.352 29.716ZM115.458 30.1188C115.458 30.5206 114.89 31.0847 114.733 31.4081C114.89 30.9234 114.972 30.1188 114.733 30.1188C114.57 30.0368 114.244 30.1972 114.244 29.9557C114.244 29.716 114.326 29.3899 114.326 29.1502C114.326 28.9097 114.085 28.7466 114.085 28.5069C114.085 28.0213 114.649 27.9411 114.811 27.6185C114.972 27.9411 114.89 28.3438 114.89 28.6664C114.972 28.9097 115.132 29.3899 114.972 29.7962C114.972 30.0368 115.458 29.8764 115.458 30.1188ZM109.331 30.1188C108.928 30.1188 108.604 30.1188 108.364 29.716C108.282 29.716 108.122 29.4728 107.96 29.6341C107.638 29.9557 107.155 29.3899 106.671 29.4728C106.428 29.716 106.105 29.8764 105.784 29.9557L105.703 29.8764C105.703 29.6341 105.944 29.3899 106.188 29.1502C106.751 29.3899 107.155 28.2628 107.719 28.9097C107.88 28.9898 108.203 28.9898 108.364 28.9898C108.928 29.1502 109.088 29.716 109.331 30.1188ZM103.608 29.6341H103.529C103.366 29.6341 102.801 29.3899 102.64 29.1502C102.561 28.9898 102.561 28.7466 102.561 28.7466C102.801 28.7466 102.964 28.6664 103.204 28.6664L103.608 29.6341ZM121.903 30.1188C121.338 30.1188 121.662 28.9898 120.45 28.9898C120.13 28.9898 119.969 29.3899 119.647 29.4728C119.647 29.3899 119.729 28.9097 119.729 28.9097C119.729 28.6664 119.807 28.424 120.13 28.1835C120.773 28.1835 120.613 28.424 121.096 28.5853C121.419 28.6664 121.582 28.9097 121.903 28.9097V30.1188ZM113.44 29.2313C113.44 29.716 113.199 30.1972 113.116 30.6819C113.116 30.1188 112.958 29.716 112.634 29.3899C112.634 29.2313 112.876 29.1502 112.715 28.9898C112.715 28.9898 112.232 28.7466 112.232 28.424C112.232 28.0213 112.554 27.778 112.715 27.5357C112.715 27.4573 113.036 27.7005 113.036 28.1835C113.036 28.3438 113.036 28.5069 112.958 28.7466C112.876 28.9898 113.44 28.9898 113.44 29.2313ZM117.39 27.6185C117.39 27.9411 117.228 28.1835 117.31 28.5069C117.067 28.0213 116.822 27.5357 116.583 27.0545C116.502 27.0545 116.424 27.0545 116.424 26.9743L116.661 26.8131C116.822 26.8131 117.067 26.8131 117.067 26.9743C117.228 27.1365 117.39 27.3762 117.39 27.6185ZM122.306 28.2628C122.061 28.1835 121.502 28.1006 121.502 27.8609C121.502 27.5357 121.338 27.4573 120.938 27.4573C120.532 27.4573 120.29 27.5357 119.807 27.7005C119.807 27.7005 119.564 27.3762 119.484 27.0545C119.647 26.9743 120.29 26.7302 120.613 26.7302C121.18 26.7302 121.821 26.7302 121.821 27.0545C121.821 27.296 122.306 27.4573 122.306 28.2628ZM101.189 26.5716C101.111 27.0545 100.868 27.2149 100.465 27.778C100.144 27.9411 99.659 28.0213 99.1752 28.2628C99.2554 28.0213 99.4978 27.9411 99.659 27.7005C99.8996 27.4573 100.144 27.0545 100.221 26.7302C100.628 26.5716 100.868 26.5716 101.189 26.5716ZM116.182 27.7005C116.182 28.1835 116.1 28.8295 116.1 29.3899C115.859 29.3899 115.859 29.1502 115.859 28.9097C115.699 28.424 115.617 27.9411 115.458 27.4573C115.214 26.7302 114.811 26.1688 114.489 25.4409C114.408 25.039 114.003 24.8768 113.683 24.6354C114.085 24.6354 114.489 24.7156 114.811 24.9588C114.811 25.2003 114.89 25.2814 115.132 25.5237C115.699 25.5237 115.617 26.2473 116.1 26.6518C116.1 26.7302 115.941 26.7302 115.859 26.895C115.699 26.895 115.617 27.2149 115.617 27.2149C115.859 27.3762 116.1 27.4573 116.182 27.7005ZM99.659 25.8454C99.4158 26.3301 99.1752 26.813 98.6923 27.0545C98.3697 27.0545 97.9679 27.2149 97.4831 27.0545C97.7246 26.813 97.9679 26.7302 98.2886 26.5716L99.0139 25.8454H99.659ZM104.494 27.0545C104.252 27.2149 103.768 27.296 103.529 27.296C102.882 26.9743 102.882 26.3301 102.319 26.0878C102.237 26.0058 102.157 25.8454 102.157 25.7652L103.529 26.0058C103.447 26.2473 103.608 26.3301 103.768 26.3301C104.011 26.5716 104.252 26.813 104.494 27.0545ZM114.003 27.0545C113.924 27.2149 113.761 27.296 113.683 27.296C113.683 27.296 113.278 26.895 113.199 26.5716C113.116 26.1688 113.36 25.6039 113.36 25.6039C113.44 25.6039 113.52 25.7652 113.683 25.7652C113.761 25.8454 113.683 26.0878 113.761 26.3301C113.924 26.5716 114.166 26.813 114.003 27.0545ZM97.403 25.6039L97.0011 26.8131C96.5966 27.2149 96.0334 27.0545 95.5505 27.0545C96.2758 26.813 96.7587 26.0878 97.0011 25.6039C97.1606 25.5237 97.2408 25.6039 97.403 25.6039ZM107.396 26.5716H107.155C106.188 26.813 105.461 26.2473 104.735 25.7652C105.219 25.6039 105.623 25.6039 105.944 25.5237H106.188L106.509 26.0058C106.751 26.0878 107.155 26.3301 107.396 26.5716ZM123.03 26.4905C122.469 26.4905 121.903 26.2473 121.821 26.0058C121.662 25.8454 121.742 25.5237 121.419 25.5237C121.18 25.5237 121.017 25.7652 121.017 25.7652C120.773 25.8454 120.29 25.5237 120.29 25.7652C120.29 26.1688 119.889 26.3301 119.564 26.3301C119.323 26.3301 119.243 26.3301 119 26.2473V25.4409C120.13 25.4409 120.049 25.039 120.532 25.039C120.854 25.039 121.096 25.2814 121.419 25.2814C121.821 25.2814 121.582 25.121 121.984 25.121C122.389 25.121 122.545 25.4409 122.87 25.5237C122.87 25.7652 123.03 26.0878 123.03 26.4905ZM96.2758 24.5552C96.2758 24.8768 96.0334 25.3616 95.6289 25.7652C95.5505 25.8454 95.3081 26.0058 95.3081 26.0058C95.3081 25.5237 95.5505 25.039 95.5505 24.6354C95.7911 24.5552 96.0334 24.393 96.2758 24.5552ZM108.848 25.6039C108.444 25.6039 107.88 25.6039 107.559 25.3616C107.072 25.039 106.913 24.8768 106.671 24.6354C106.995 24.393 107.396 24.393 107.638 24.3137C107.88 24.6354 108.282 25.2814 108.848 25.6039ZM112.876 25.2003C112.876 25.4409 112.715 25.5237 112.554 25.6841C112.554 25.6841 112.232 25.2814 112.232 25.039C112.232 24.7966 112.232 24.5552 112.312 24.3137C112.554 24.5552 112.876 24.8768 112.876 25.2003ZM116.583 25.3616C115.859 24.8768 115.376 24.1515 114.733 23.428C115.376 23.428 115.617 24.0705 116.1 24.1515C116.263 24.3137 116.424 24.393 116.583 24.6354V25.3616ZM101.593 23.346C101.593 23.9118 101.512 24.6354 100.95 24.8768L100.706 24.0705C101.029 23.9119 101.272 23.6695 101.593 23.346ZM99.8203 24.6354C99.3365 24.1515 98.9311 23.6695 98.9311 23.1865C99.1752 23.1865 99.4158 23.1865 99.659 23.428C99.659 23.8308 99.8996 24.1515 99.8203 24.6354ZM122.87 24.5552C122.144 24.2326 121.096 23.9119 120.532 23.9119C120.212 23.9119 119.243 24.3137 118.841 24.7156L118.681 23.9119C119.243 23.8308 119.243 23.428 119.564 23.428C119.807 23.428 120.13 23.346 120.374 23.346C120.613 23.346 120.773 23.1046 120.938 23.1046C121.259 23.1046 121.096 23.5875 121.419 23.5875C121.662 23.5875 121.742 23.428 121.984 23.428C122.389 23.428 122.789 24.0705 122.87 24.5552ZM103.447 24.6354C103.042 24.393 102.319 24.3137 102.399 23.8308C102.64 23.428 102.882 23.346 103.042 23.1046C103.124 23.6695 103.204 24.1515 103.447 24.6354ZM110.862 24.1515L110.459 24.3137C109.573 24.3137 109.088 24.0705 108.685 23.6695C109.008 23.6695 109.492 23.346 109.492 23.346C109.895 23.6695 110.459 24.0705 110.862 24.1515ZM95.1477 23.346C94.8243 23.6695 94.4207 23.9119 94.1792 24.393C94.1792 24.1515 94.0999 23.9119 94.0188 23.6695C94.0999 23.428 94.3414 23.1865 94.5017 23.1046C94.6639 23.1865 94.9045 23.1865 95.1477 23.346ZM105.461 24.3137C105.139 24.393 104.575 24.5552 104.333 24.1515C103.849 23.428 104.171 22.7009 104.414 22.1396C104.575 22.6216 104.656 23.1046 104.735 23.5875C104.817 23.9119 105.299 24.0705 105.461 24.3137ZM111.828 22.9433C111.505 23.1046 110.862 23.1865 110.379 22.8622L111.022 22.4604C111.264 22.7009 111.587 22.8622 111.828 22.9433ZM120.938 22.7009C120.45 22.7009 120.29 22.6216 119.889 22.6216C119.564 22.6216 119.082 22.8622 118.759 23.1865C118.597 22.9433 118.681 22.7009 118.759 22.4604C119 22.2171 119.403 21.8963 119.807 21.8963C120.374 21.8963 120.938 22.3793 120.938 22.7009ZM97.1606 23.5875C96.5966 23.428 96.0334 22.9433 95.7911 22.4604C95.6289 22.1396 95.5505 21.7342 95.5505 21.4107C95.8713 21.4918 96.1136 21.7342 96.2758 21.8963V21.9747C96.5966 22.4604 97.0804 22.9433 97.1606 23.5875ZM98.2084 22.2171L98.0481 23.346C97.7246 22.8622 97.4831 22.3793 97.403 21.7342L98.2084 22.2171ZM106.509 23.1865C106.025 23.346 105.703 22.9433 105.38 22.7009C105.139 22.2171 105.139 21.7342 104.979 21.4107C105.38 21.7342 106.025 21.7342 105.944 22.4604C105.944 22.7009 106.269 22.9433 106.509 23.1865ZM108.444 22.2171C107.96 22.2171 107.396 22.4604 107.155 21.9747C107.315 21.8963 107.476 21.6549 107.719 21.4918L108.444 22.2171ZM121.017 21.4107C120.45 21.2512 120.049 21.0891 119.564 21.0891C119.323 21.0891 118.597 21.2512 118.518 21.4107C118.274 21.1692 118.681 20.4466 119 20.2845C119.323 20.1232 119.564 20.2043 119.729 20.2845C119.729 20.7683 120.29 20.5268 120.613 20.6863C120.773 20.9269 120.938 21.1692 121.017 21.4107ZM109.976 21.0089C109.814 21.2512 109.573 21.0089 109.411 21.0089H108.685C108.604 20.7683 108.524 20.6863 108.444 20.5268C108.848 20.4466 109.088 20.2845 109.331 20.4466C109.573 20.6863 109.652 21.0089 109.976 21.0089ZM103.042 19.7204C102.964 20.2043 102.801 21.0089 102.319 21.2512C102.319 21.0089 102.076 20.7683 101.915 20.5268C101.836 20.5268 101.915 20.7683 101.836 20.7683C101.836 21.0089 101.756 21.2512 101.756 21.6549C101.512 21.7342 101.189 21.8963 100.868 21.7342V21.4918C100.706 21.2512 100.706 21.0089 100.706 20.7683L100.628 20.6863C100.465 20.7683 100.465 21.0089 100.465 21.1692C100.384 21.2512 100.144 21.4918 100.144 21.7342C99.8996 21.7342 99.659 21.6549 99.4158 21.4918V20.6863C99.4158 20.5268 99.4158 20.5268 99.3365 20.5268L98.9311 21.0089C98.613 20.6863 98.5319 20.0421 98.5319 19.5574C99.8996 18.833 101.512 19.0744 102.561 19.4798C102.721 19.5574 102.882 19.5574 103.042 19.7204ZM109.331 19.0744C108.848 19.0744 108.604 18.833 108.364 18.3491C108.364 18.1086 108.282 17.7842 108.364 17.3824C108.444 17.6238 108.524 17.8662 108.685 18.0257C109.008 17.8662 109.008 18.2672 109.088 18.3491C109.17 18.5915 109.331 18.833 109.331 19.0744ZM107.559 15.1236C107.559 15.2065 107.396 15.8489 107.396 15.8489L106.751 16.093L107.155 14.2379C107.315 14.5596 107.559 14.883 107.559 15.1236ZM94.745 13.7541L94.4207 14.2379C94.5017 15.1236 94.0999 15.6894 94.0999 16.4138L93.6963 15.1236C93.7764 14.7217 93.8584 14.3992 94.0999 13.9964L94.745 13.7541ZM107.396 18.833C106.428 18.2672 105.299 17.8662 104.091 17.7842C104.091 18.0257 104.091 18.2672 104.011 18.3491C104.979 18.833 105.944 19.3159 106.751 20.0421V20.7683C105.944 19.9619 104.979 19.0744 103.849 18.833C103.768 18.9942 103.529 19.2357 103.366 19.4798C102.801 19.0744 102.157 18.7528 101.433 18.5915C101.189 18.5915 101.111 18.2672 101.111 18.0257L101.029 17.6238C101.433 17.5427 101.756 17.2202 101.836 16.8183C101.915 16.8985 102.076 16.8985 102.237 16.8985C102.399 16.8183 102.399 16.6562 102.399 16.4138C102.399 15.9318 101.352 15.9318 100.868 15.9318C100.304 15.9318 99.8996 15.8489 99.4978 16.1732C99.3365 16.1732 99.4158 16.4138 99.4158 16.576C99.4158 16.6562 99.659 16.8183 99.659 16.8183C99.8996 16.8183 99.9816 16.6562 100.144 16.6562C100.061 17.14 100.304 17.4617 100.706 17.6238L100.628 18.3491C100.384 18.5915 99.9816 18.4293 99.659 18.5915C99.1752 18.833 98.6923 19.0744 98.2084 19.3159C97.9679 19.0744 97.8057 18.833 97.6453 18.5915C96.8389 18.833 96.356 19.3159 95.5505 19.8006C95.3081 19.9619 94.9045 20.2845 94.9045 20.2845C94.8243 20.2043 94.9045 19.9619 94.9045 19.7204C95.6289 18.9942 96.5966 18.7528 97.403 18.2672V17.6238C97.0804 17.5427 96.7587 17.6238 96.356 17.6238C95.6289 17.7842 94.9045 18.1086 94.3414 18.5095C94.3414 18.2672 94.1792 18.0257 94.4207 17.8662C95.3081 17.3824 96.356 17.0598 97.4831 17.14V16.8183C97.403 16.6562 97.403 16.4138 97.2408 16.4138C96.7587 15.8489 96.2758 15.2065 96.2758 14.6415L96.5164 14.4785C96.356 13.9964 96.2758 12.7864 96.5164 12.2233C96.0334 12.062 95.5505 11.5782 95.3901 11.2565C95.2279 10.852 95.0658 10.6114 94.9865 10.1276C95.1477 9.64463 95.3901 9.40227 95.6289 8.91844C95.7911 8.91844 96.0334 8.83825 96.1136 8.67607C96.5164 8.59588 96.8389 8.19225 97.3228 8.43461C97.6453 8.43461 97.9679 8.59588 98.2084 8.67607C98.2084 8.83825 98.2084 8.91844 98.4517 9.07971C98.9311 9.1599 98.9311 9.64463 99.1752 10.0456C99.4158 10.1276 99.659 10.1276 99.8996 10.1276C100.384 10.288 100.706 10.288 100.95 10.5303C101.593 10.1276 102.319 10.0456 103.042 10.1276C103.124 9.80502 103.286 9.56265 103.366 9.1599C103.529 9.32119 103.447 9.07971 103.608 9.07971C104.011 8.83825 104.414 8.43461 104.979 8.59588C105.38 8.83825 105.944 8.67607 106.188 9.1599C106.509 9.40227 106.671 9.8861 106.913 10.369C106.671 10.852 106.913 11.5782 106.428 11.8187L105.944 12.3044C105.784 12.3044 105.703 12.4639 105.461 12.4639C105.703 13.0288 105.542 13.9171 105.299 14.4785C105.461 14.3992 105.703 14.3992 105.784 14.1577C105.864 14.2379 105.784 14.3992 105.784 14.4785C105.703 14.6415 105.703 14.7217 105.703 14.7217C105.784 15.2065 105.461 15.6074 105.139 15.9318C104.979 16.4138 104.575 17.0598 104.011 17.14V17.3824C105.219 17.3824 106.269 17.6238 107.396 18.2672V18.833ZM125.527 13.5126C125.284 13.2711 125.044 13.0288 124.721 13.0288C124.481 12.7062 124.162 12.3044 123.834 12.3044C124.078 12.2233 124.399 12.062 124.802 12.062C125.044 12.4639 125.284 12.7864 125.366 13.0288L125.527 13.5126ZM94.5828 12.5458L94.0188 12.7864L94.0999 12.3044C94.2603 12.062 94.3414 11.8187 94.5828 11.5782V12.5458ZM122.952 11.7403C122.629 11.7403 122.389 11.8187 122.061 11.7403C121.903 11.5782 121.662 11.7403 121.502 11.8187C121.338 11.8187 121.18 11.7403 120.938 11.5782C121.419 11.5782 121.662 11.2565 122.061 11.0934C122.389 11.3358 122.707 11.498 122.952 11.7403ZM105.139 35.0355C105.139 34.7138 104.897 34.5517 104.575 34.5517C104.333 34.5517 104.011 34.8742 104.011 35.0355C104.011 35.359 103.768 37.2114 103.768 37.2114H104.414C104.656 36.4059 105.139 35.4383 105.139 35.0355ZM103.286 34.9526H103.204L102.561 34.3093H102.479C102.319 34.4688 102.237 34.7138 102.076 34.9526C102.076 35.6806 102.319 36.4879 102.479 37.2114H103.204C103.204 36.4059 103.286 35.6806 103.286 34.9526ZM116.263 33.9859L115.458 34.067C115.699 34.3093 115.699 34.6319 115.699 34.7931C115.699 35.0355 115.617 35.2761 115.458 35.4382C115.214 35.2761 115.214 35.0355 115.052 34.7931C114.89 34.7931 114.811 35.1941 114.811 35.359C114.811 36.1644 115.132 36.7303 115.376 37.2114H116.182C116.1 36.4879 115.941 35.9212 115.941 35.1941C115.941 34.7931 116.182 34.3093 116.263 33.9859ZM134.474 26.2473C134.474 22.8622 133.347 19.2357 130.283 16.1732C129.795 15.6894 129.157 15.1236 128.509 14.7217C127.3 13.9171 126.175 12.7864 125.527 11.5782C125.124 11.0934 124.802 10.852 124.317 10.6114C124.399 10.852 124.558 11.0934 124.639 11.3358H124.558C124.078 11.3358 123.676 11.0934 123.349 10.852L123.676 10.5303C123.595 10.369 123.349 10.369 123.188 10.369C121.742 10.1276 120.532 10.852 119.243 11.0934V11.2565C120.049 11.5782 120.212 12.5458 120.692 13.0288H121.18C121.419 13.0288 121.662 13.2711 121.821 13.1909C121.821 13.0288 121.662 12.7864 121.662 12.7062C121.821 12.5458 121.984 12.5458 122.144 12.7062C122.545 12.9477 123.188 12.5458 123.509 13.1909C123.03 13.1909 122.545 13.2711 122.144 13.4315C122.144 13.5126 122.389 13.7541 122.306 13.9171C121.903 13.7541 121.419 13.9171 121.18 13.5126L121.096 13.6739C121.662 14.2379 122.389 14.7217 123.114 14.965C124.239 15.2065 125.206 14.6415 126.255 14.883C127.465 15.447 128.43 16.1732 129.236 16.9796C131.896 19.8006 132.865 22.7811 132.865 25.4409C132.865 28.7466 131.896 31.0847 130.446 32.5353C129.557 33.4245 128.43 34.2282 127.059 34.2282C126.738 34.2282 126.092 34.1471 125.69 33.8255C125.93 32.8569 126.092 31.81 126.092 30.2801C126.092 29.3899 126.092 27.0545 124.965 24.3137C124.721 23.7497 123.834 21.9747 122.707 20.7683C121.821 19.8808 120.773 19.0744 119.729 19.0744C119.243 19.0744 118.759 19.1555 118.355 19.4798C117.954 19.8808 117.711 20.5268 117.793 21.0089C117.067 21.4107 116.018 21.7342 115.132 21.7342C114.085 21.7342 112.958 21.1692 111.988 20.5268V19.3159C111.424 19.0744 111.264 18.833 111.185 18.3491L111.264 18.2672C111.505 18.3491 111.669 18.5095 111.828 18.5915C111.748 18.0257 111.669 17.3824 111.346 16.8985C111.103 16.8985 110.862 16.8183 110.618 16.6562C110.298 16.4138 110.136 16.093 110.136 15.6894C110.379 16.093 110.781 15.9318 111.022 16.1732C110.618 15.2065 110.781 14.7217 110.055 13.1909C109.814 12.4639 109.088 12.062 108.604 11.5782C108.364 11.3358 108.282 11.0934 107.88 11.0934C107.638 11.0124 107.638 10.6114 107.559 10.369C107.719 10.369 107.88 10.5303 108.041 10.6114C107.638 9.40227 107.236 8.19225 106.105 7.46694L105.944 7.62911C105.461 7.70752 104.979 7.70752 104.575 7.70752C104.735 7.46694 105.058 7.38675 105.38 7.22637C105.058 6.984 104.817 6.90292 104.333 6.90292C104.171 6.984 103.768 7.22637 103.447 7.22637H103.366C103.366 6.984 103.286 6.65967 103.768 6.50017C103.286 6.41819 102.882 6.41819 102.319 6.50017C102.237 6.90292 101.915 7.14528 101.915 7.46694C101.674 7.70752 101.593 7.94988 101.352 8.19225C101.352 7.62911 101.593 7.14528 101.674 6.65967C101.352 6.74075 100.95 6.984 100.706 6.984C100.061 6.65967 99.2554 6.25781 98.9311 6.25781C99.4158 6.65967 99.1752 7.22637 99.2554 7.70752L98.9311 7.46694C98.7725 7.14528 98.4517 6.90292 98.2886 6.50017C97.8057 6.50017 97.4831 6.65967 97.0804 6.90292L97.0011 6.984C97.3228 6.984 97.6453 7.22637 97.8057 7.46694C97.2408 7.46694 96.8389 7.22637 96.2758 7.22637C96.2758 7.22637 96.2758 7.14528 96.1136 7.14528C95.8713 7.22637 95.6289 7.46694 95.4676 7.62911C94.9045 8.11116 94.5017 8.59588 94.1792 9.32119C94.3414 9.32119 94.5828 9.32119 94.6639 9.40227C94.4207 9.56265 94.1792 9.8861 93.8584 10.0456V11.2565C93.617 11.5782 93.2944 11.8187 93.1322 12.2233C92.7286 13.6739 92.6484 15.2065 92.6484 16.8985C92.4871 17.14 92.3258 17.2202 92.1672 17.3022V18.7528C92.1672 18.7528 92.7286 18.1879 92.971 18.0257C92.971 18.3491 92.8908 18.833 92.8908 19.1555C92.6484 19.1555 92.3258 19.4798 92.3258 19.8006C92.3258 20.1232 92.406 20.4466 92.406 20.7683C92.406 20.9269 92.406 21.0089 92.4871 21.1692C92.5682 21.0089 92.7286 20.7683 92.8908 20.6863C92.971 20.6863 93.1322 20.5268 93.3737 20.5268C93.2133 20.7683 93.1322 21.1692 92.971 21.4918L92.7286 21.7342C92.7286 21.7342 92.6484 21.8963 92.6484 21.9747C92.8908 23.6695 93.4539 25.2814 94.0999 26.9743C93.535 28.1006 92.971 29.3115 92.7286 30.1972C92.4871 30.8423 92.1672 32.1325 92.1672 32.1325C91.7636 31.7307 91.1978 31.6496 90.714 31.6496C90.1508 31.7307 89.667 31.8911 89.2634 32.374C88.7804 32.1325 88.1353 32.2127 87.8128 32.6155C87.0884 33.2632 87.0884 33.584 87.0884 34.067C86.846 34.3093 86.5234 34.7138 86.5234 35.2761C86.5234 36.0834 86.6856 36.5645 87.0884 37.2114H99.8996C99.7392 36.9699 99.5771 36.6474 99.4158 36.4059C99.1752 35.9212 99.3365 35.2761 99.3365 34.7931C99.5771 34.3093 99.8996 33.8255 100.144 33.3425C100.221 33.1011 100.144 33.1011 100.304 33.0191L100.868 32.7785C101.189 32.7785 101.433 32.6155 101.836 32.6155C102.157 33.0191 102.157 32.2938 102.561 32.1325C103.529 32.0514 104.333 32.1325 104.817 32.8569C104.817 33.0191 104.979 33.0191 104.979 33.1011H104.575C104.091 32.8569 103.447 32.6155 102.882 32.8569C102.882 33.1011 102.801 33.1011 102.801 33.3425V33.7453C103.124 33.8255 103.366 34.067 103.688 34.3093C103.849 33.9859 104.333 33.7453 104.735 33.7453C105.139 33.7453 105.784 33.9859 105.784 34.7138C105.784 35.0355 105.703 35.3589 105.703 35.6806C106.025 35.9212 106.509 35.9996 106.913 36.2429C106.751 36.4879 106.509 36.4879 106.269 36.4879H105.542C105.461 36.4059 105.299 36.4059 105.299 36.2429C105.058 36.4879 104.897 36.8889 104.735 37.2114H114.57C114.408 36.8889 114.244 36.6474 114.166 36.4059C113.924 35.9212 114.003 35.2761 113.924 34.7931L114.89 33.5056C115.376 33.5056 115.859 33.3425 116.745 33.2632C116.904 33.0191 116.745 32.8569 117.468 32.7785C118.112 32.7785 118.518 33.0191 118.681 33.1011C118.759 33.2632 118.759 33.2632 118.681 33.4245C118.518 33.584 118.196 33.2632 117.954 33.3425C117.793 33.5056 118.035 33.584 118.035 33.7453C118.196 33.9057 117.31 33.584 117.31 33.584C117.31 33.584 117.067 34.067 116.987 34.3093C116.987 34.3093 117.39 34.5517 117.468 34.7931C117.631 35.0355 117.31 35.2761 117.31 35.5193C117.067 35.4382 116.822 35.1941 116.745 35.2761C116.583 35.9212 116.745 36.4879 116.661 37.2114H117.55L117.711 35.7599C117.793 34.9526 118.759 33.4245 119.323 33.4245C119.729 33.4245 119.889 33.584 120.212 33.8255C120.45 34.067 120.773 34.3093 120.773 34.4688C120.773 34.5517 120.532 34.7138 120.13 34.7138C119.969 34.7138 119.889 34.4688 119.729 34.3093L119.243 34.7931C119.243 34.7931 119.807 35.2761 119.807 35.6806C119.807 35.9996 119.729 36.2429 119.403 36.4059L118.922 35.4382C118.681 35.4382 118.274 35.9212 118.274 36.2429C118.274 36.5645 118.112 36.7303 118.112 37.2114H123.349C123.917 37.2114 124.399 37.0484 124.965 36.7303H126.011C127.465 36.7303 129.318 36.4879 131.249 34.6319C134.312 31.7307 134.474 27.778 134.474 26.2473ZM101.836 37.2114C101.433 36.4059 101.352 35.2761 101.352 35.0355C101.352 34.5517 101.352 33.9859 101.593 33.584L100.628 33.8255C100.465 34.067 100.384 34.3093 100.384 34.4688L100.706 34.3093C100.868 34.3093 100.95 34.4688 101.029 34.5517C100.95 35.0355 100.465 35.0355 100.221 35.1941C99.9816 35.9996 100.706 36.4879 100.868 37.2114H101.836Z" fill="#EB6606"/>
</g>
<defs>
<clipPath id="clip0_30732_10830">
<rect width="140" height="44" fill="white"/>
</clipPath>
</defs>
</svg>
