<svg width="52" height="52" viewBox="0 0 52 52" fill="none" xmlns="http://www.w3.org/2000/svg">
<rect width="52" height="52" rx="12" fill="url(#paint0_linear_30603_14039)"/>
<path d="M37.6693 34.1667V37.6667H14.3359V34.1667C14.3359 33.525 14.8609 33 15.5026 33H36.5026C37.1443 33 37.6693 33.525 37.6693 34.1667Z" fill="white" stroke="white" stroke-width="1.75" stroke-miterlimit="10" stroke-linecap="round" stroke-linejoin="round"/>
<path d="M20.1693 24.832H17.8359V32.9987H20.1693V24.832Z" fill="white"/>
<path d="M24.8333 24.832H22.5V32.9987H24.8333V24.832Z" fill="white"/>
<path d="M29.4974 24.832H27.1641V32.9987H29.4974V24.832Z" fill="white"/>
<path d="M34.1693 24.832H31.8359V32.9987H34.1693V24.832Z" fill="white"/>
<path d="M38.8307 38.543H13.1641C12.6857 38.543 12.2891 38.1463 12.2891 37.668C12.2891 37.1896 12.6857 36.793 13.1641 36.793H38.8307C39.3091 36.793 39.7057 37.1896 39.7057 37.668C39.7057 38.1463 39.3091 38.543 38.8307 38.543Z" fill="white"/>
<path d="M36.9343 18.7075L26.4343 14.5075C26.2009 14.4142 25.8043 14.4142 25.5709 14.5075L15.0709 18.7075C14.6626 18.8708 14.3359 19.3492 14.3359 19.7925V23.6658C14.3359 24.3075 14.8609 24.8325 15.5026 24.8325H36.5026C37.1443 24.8325 37.6693 24.3075 37.6693 23.6658V19.7925C37.6693 19.3492 37.3426 18.8708 36.9343 18.7075ZM26.0026 21.9158C25.0343 21.9158 24.2526 21.1342 24.2526 20.1658C24.2526 19.1975 25.0343 18.4158 26.0026 18.4158C26.9709 18.4158 27.7526 19.1975 27.7526 20.1658C27.7526 21.1342 26.9709 21.9158 26.0026 21.9158Z" fill="white"/>
<defs>
<linearGradient id="paint0_linear_30603_14039" x1="52" y1="26" x2="1.13535e-07" y2="26" gradientUnits="userSpaceOnUse">
<stop stop-color="#FF77D7"/>
<stop offset="1" stop-color="#FA6C12"/>
</linearGradient>
</defs>
</svg>
