<svg width="16" height="16" viewBox="0 0 16 16" fill="none" xmlns="http://www.w3.org/2000/svg">
<path d="M12.1893 6.35203V5.5187C12.1893 3.7187 11.7559 1.33203 8.0026 1.33203C4.24927 1.33203 3.81594 3.7187 3.81594 5.5187V6.35203C1.94927 6.58536 1.33594 7.53203 1.33594 9.8587V11.0987C1.33594 13.832 2.16927 14.6654 4.9026 14.6654H11.1026C13.8359 14.6654 14.6693 13.832 14.6693 11.0987V9.8587C14.6693 7.53203 14.0559 6.58536 12.1893 6.35203ZM8.0026 12.492C6.88927 12.492 5.98927 11.5854 5.98927 10.4787C5.98927 9.36536 6.89594 8.46536 8.0026 8.46536C9.10927 8.46536 10.0159 9.37203 10.0159 10.4787C10.0159 11.592 9.11594 12.492 8.0026 12.492ZM4.9026 6.29203C4.84927 6.29203 4.8026 6.29203 4.74927 6.29203V5.5187C4.74927 3.56536 5.3026 2.26536 8.0026 2.26536C10.7026 2.26536 11.2559 3.56536 11.2559 5.5187V6.2987C11.2026 6.2987 11.1559 6.2987 11.1026 6.2987H4.9026V6.29203Z" fill="white"/>
</svg>
