<svg width="950" height="255" viewBox="0 0 950 255" fill="none" xmlns="http://www.w3.org/2000/svg">
<path d="M286.485 168V87.2613H313.153L331.381 147.448H331.625L349.608 87.2613H374.931V168H358.538V104.999H358.294L338.598 168H322.573L303.122 104.999H302.877V168H286.485ZM414.639 169.713C408.522 169.713 403.058 168.489 398.246 166.043C393.516 163.515 389.805 159.763 387.114 154.788C384.504 149.813 383.2 143.534 383.2 135.949C383.2 128.202 384.586 121.84 387.359 116.865C390.132 111.891 393.883 108.18 398.613 105.733C403.425 103.287 408.808 102.063 414.761 102.063C420.959 102.063 426.423 103.327 431.153 105.856C435.884 108.302 439.554 112.054 442.163 117.11C444.855 122.085 446.2 128.365 446.2 135.949C446.2 143.778 444.814 150.18 442.041 155.155C439.268 160.13 435.476 163.8 430.664 166.165C425.934 168.53 420.592 169.713 414.639 169.713ZM415.006 156.501C417.86 156.501 420.266 155.726 422.223 154.177C424.181 152.627 425.689 150.384 426.749 147.448C427.81 144.512 428.34 141.006 428.34 136.928C428.34 132.442 427.769 128.691 426.627 125.673C425.485 122.574 423.854 120.209 421.734 118.578C419.695 116.865 417.208 116.009 414.272 116.009C411.499 116.009 409.093 116.784 407.054 118.333C405.097 119.883 403.588 122.166 402.528 125.184C401.549 128.12 401.06 131.668 401.06 135.827C401.06 142.27 402.283 147.326 404.73 150.996C407.176 154.666 410.602 156.501 415.006 156.501ZM453.962 168V133.136L453.84 103.776H469.009L468.52 130.934H469.621C470.11 124.409 471.17 119.027 472.802 114.786C474.514 110.545 476.879 107.364 479.897 105.244C482.996 103.124 486.91 102.063 491.641 102.063C498.654 102.063 503.915 104.469 507.421 109.281C510.928 114.011 512.682 121.188 512.682 130.811V168H495.066V132.769C495.066 127.631 494.291 123.798 492.742 121.269C491.274 118.741 488.868 117.477 485.524 117.477C482.67 117.477 480.182 118.456 478.062 120.413C476.023 122.37 474.433 125.469 473.291 129.71C472.149 133.951 471.578 139.538 471.578 146.47V168H453.962ZM551.673 169.713C545.882 169.713 540.948 168.856 536.871 167.144C532.875 165.431 529.612 163.066 527.084 160.048C524.556 157.031 522.721 153.565 521.579 149.65C520.438 145.736 519.867 141.536 519.867 137.05C519.867 132.402 520.438 127.998 521.579 123.838C522.803 119.598 524.638 115.846 527.084 112.584C529.531 109.322 532.711 106.753 536.626 104.877C540.541 103.001 545.148 102.063 550.449 102.063C555.751 102.063 560.318 103.001 564.151 104.877C567.984 106.671 571.042 109.199 573.325 112.462C575.691 115.724 577.24 119.557 577.974 123.961C578.79 128.283 578.83 133.054 578.096 138.273L530.754 139.007V129.099L564.64 128.365L562.193 134.114C562.601 130.363 562.438 127.141 561.704 124.45C560.97 121.759 559.665 119.72 557.789 118.333C555.995 116.865 553.549 116.131 550.449 116.131C547.187 116.131 544.537 116.988 542.498 118.7C540.541 120.332 539.113 122.656 538.216 125.673C537.319 128.691 536.871 132.198 536.871 136.194C536.871 143.126 538.094 148.223 540.541 151.485C543.069 154.747 546.82 156.379 551.795 156.379C554.079 156.379 555.954 156.093 557.422 155.522C558.972 154.87 560.195 154.013 561.092 152.953C562.071 151.811 562.723 150.507 563.05 149.039C563.457 147.571 563.621 145.98 563.539 144.268L579.687 145.246C579.85 148.101 579.483 150.996 578.586 153.932C577.77 156.786 576.261 159.396 574.059 161.761C571.939 164.126 569.003 166.043 565.252 167.511C561.582 168.979 557.055 169.713 551.673 169.713ZM611.156 169.346C604.061 169.346 598.719 167.511 595.131 163.841C591.624 160.171 589.871 154.503 589.871 146.837V117.722H582.653V106.223H583.632C588.117 105.733 591.298 104.306 593.174 101.941C595.131 99.4944 596.314 95.8245 596.721 90.9312L596.844 89.3409H607.364V103.776H622.656V118.089H607.364V145.246C607.364 148.345 608.098 150.588 609.566 151.975C611.116 153.361 613.032 154.054 615.316 154.054C616.539 154.054 617.762 153.891 618.986 153.565C620.291 153.157 621.514 152.627 622.656 151.975V167.633C620.291 168.285 618.17 168.734 616.294 168.979C614.419 169.223 612.706 169.346 611.156 169.346ZM657.629 169.713C651.512 169.713 646.048 168.489 641.237 166.043C636.506 163.515 632.796 159.763 630.104 154.788C627.495 149.813 626.19 143.534 626.19 135.949C626.19 128.202 627.576 121.84 630.349 116.865C633.122 111.891 636.873 108.18 641.604 105.733C646.415 103.287 651.798 102.063 657.751 102.063C663.949 102.063 669.414 103.327 674.144 105.856C678.874 108.302 682.544 112.054 685.154 117.11C687.845 122.085 689.191 128.365 689.191 135.949C689.191 143.778 687.804 150.18 685.031 155.155C682.258 160.13 678.466 163.8 673.654 166.165C668.924 168.53 663.582 169.713 657.629 169.713ZM657.996 156.501C660.85 156.501 663.256 155.726 665.214 154.177C667.171 152.627 668.68 150.384 669.74 147.448C670.8 144.512 671.33 141.006 671.33 136.928C671.33 132.442 670.759 128.691 669.618 125.673C668.476 122.574 666.845 120.209 664.724 118.578C662.685 116.865 660.198 116.009 657.262 116.009C654.489 116.009 652.083 116.784 650.044 118.333C648.087 119.883 646.578 122.166 645.518 125.184C644.54 128.12 644.05 131.668 644.05 135.827C644.05 142.27 645.274 147.326 647.72 150.996C650.167 154.666 653.592 156.501 657.996 156.501ZM735.249 144.145V129.833H751.397C756.943 129.833 761.102 128.732 763.875 126.53C766.729 124.328 768.156 120.739 768.156 115.764C768.156 110.953 766.852 107.405 764.242 105.122C761.714 102.757 757.84 101.574 752.62 101.574H735.249V87.2613H753.844C758.411 87.2613 762.652 87.8321 766.566 88.9739C770.562 90.0341 774.028 91.7467 776.964 94.1118C779.9 96.3953 782.184 99.3313 783.815 102.92C785.446 106.427 786.261 110.667 786.261 115.642C786.261 121.84 784.834 127.101 781.98 131.423C779.207 135.664 775.129 138.844 769.747 140.965C764.364 143.085 757.717 144.145 749.807 144.145H735.249ZM722.649 168V87.2613H740.265V168H722.649ZM793.002 168V82.9797H810.618V168H793.002ZM840.305 169.713C833.21 169.713 827.95 167.225 824.524 162.25C821.099 157.194 819.387 149.446 819.387 139.007V103.776H837.125V138.763C837.125 144.39 837.859 148.386 839.327 150.751C840.876 153.035 843.16 154.177 846.177 154.177C848.298 154.177 850.173 153.646 851.804 152.586C853.517 151.526 854.985 149.936 856.208 147.815C857.513 145.695 858.492 142.963 859.144 139.619C859.797 136.275 860.123 132.279 860.123 127.631V103.776H877.739V138.029V168H862.57L862.937 142.31H862.08C861.509 148.672 860.327 153.891 858.533 157.969C856.82 161.965 854.455 164.942 851.437 166.899C848.42 168.775 844.709 169.713 840.305 169.713ZM914.662 169.713C910.421 169.713 906.465 169.264 902.796 168.367C899.207 167.551 896.067 166.206 893.376 164.33C890.766 162.454 888.768 159.967 887.382 156.868C885.995 153.687 885.424 149.895 885.669 145.491L901.083 144.023C901.164 147.041 901.776 149.528 902.918 151.485C904.06 153.361 905.65 154.747 907.689 155.645C909.809 156.46 912.337 156.868 915.273 156.868C918.372 156.868 920.941 156.379 922.98 155.4C925.019 154.34 926.039 152.668 926.039 150.384C926.039 148.998 925.59 147.897 924.693 147.081C923.877 146.266 922.491 145.532 920.534 144.879C918.576 144.227 915.926 143.493 912.582 142.677C908.667 141.78 905.079 140.842 901.817 139.864C898.555 138.804 895.741 137.58 893.376 136.194C891.011 134.726 889.176 132.932 887.871 130.811C886.648 128.609 886.036 125.918 886.036 122.737C886.036 118.415 887.178 114.745 889.461 111.728C891.826 108.628 895.048 106.263 899.126 104.632C903.285 102.92 908.056 102.063 913.438 102.063C918.332 102.063 922.858 102.838 927.017 104.388C931.258 105.937 934.602 108.465 937.048 111.972C939.495 115.397 940.433 119.965 939.862 125.673L924.693 127.141C924.938 124.532 924.571 122.33 923.592 120.535C922.613 118.741 921.145 117.396 919.188 116.498C917.312 115.52 915.069 115.03 912.46 115.03C909.361 115.03 906.914 115.642 905.12 116.865C903.407 118.007 902.551 119.516 902.551 121.392C902.551 122.941 903.081 124.205 904.141 125.184C905.283 126.163 906.914 126.978 909.034 127.631C911.155 128.202 913.846 128.854 917.108 129.588C919.881 130.159 922.736 130.893 925.672 131.79C928.689 132.605 931.462 133.747 933.99 135.215C936.6 136.602 938.679 138.518 940.229 140.965C941.86 143.33 942.676 146.388 942.676 150.14C942.676 154.054 941.575 157.52 939.373 160.538C937.252 163.474 934.112 165.757 929.953 167.388C925.794 168.938 920.697 169.713 914.662 169.713Z" fill="#FA6D1C"/>
<mask id="mask0_30846_11094" style="mask-type:alpha" maskUnits="userSpaceOnUse" x="0" y="0" width="255" height="255">
<g clip-path="url(#clip0_30846_11094)">
<g clip-path="url(#clip1_30846_11094)">
<path d="M223.297 161.301L151.847 114.901L122.385 160.269C100.994 150.16 83.5729 133.224 72.8637 112.127L60.7122 88.2686M114.725 105.82L60.7122 88.2686L43.1604 142.282" stroke="black" stroke-width="13.387" stroke-linecap="round" stroke-linejoin="round"/>
</g>
</g>
</mask>
<g mask="url(#mask0_30846_11094)">
<rect x="254.07" y="209.512" width="214.215" height="214.194" transform="rotate(168 254.07 209.512)" fill="#FA6D1C"/>
</g>
<defs>
<clipPath id="clip0_30846_11094">
<rect width="214.215" height="214.194" fill="white" transform="translate(254.07 209.512) rotate(168)"/>
</clipPath>
<clipPath id="clip1_30846_11094">
<rect width="214.192" height="214.192" fill="white" transform="translate(254.07 209.504) rotate(168)"/>
</clipPath>
</defs>
</svg>
