<svg width="355" height="355" viewBox="0 0 355 355" fill="none" xmlns="http://www.w3.org/2000/svg">
<g clip-path="url(#clip0_30732_10618)">
<rect width="355" height="355" fill="white"/>
<mask id="mask0_30732_10618" style="mask-type:alpha" maskUnits="userSpaceOnUse" x="74" y="-11" width="205" height="205">
<g clip-path="url(#clip1_30732_10618)">
<g clip-path="url(#clip2_30732_10618)">
<path d="M254.016 118.809L196.519 81.4702L172.811 117.978C155.598 109.843 141.579 96.2149 132.961 79.2383L123.183 60.0392M166.648 74.1632L123.183 60.0392L109.059 103.504" stroke="black" stroke-width="10.7726" stroke-linecap="round" stroke-linejoin="round"/>
</g>
</g>
</mask>
<g mask="url(#mask0_30732_10618)">
<rect x="278.781" y="157.605" width="172.38" height="172.363" transform="rotate(168 278.781 157.605)" fill="url(#paint0_linear_30732_10618)"/>
</g>
<path d="M47.2753 214.637V163.326H64.2235L76.3516 201.653H76.5848L88.5573 163.326H104.65V214.637H94.1549L94.3104 174.676H93.9994L80.8607 214.637H70.9095L57.8485 174.599H57.5375L57.693 214.637H47.2753ZM130.841 215.725C126.902 215.725 123.404 214.948 120.346 213.393C117.34 211.786 114.956 209.402 113.194 206.24C111.483 203.027 110.628 199.036 110.628 194.268C110.628 189.344 111.509 185.301 113.271 182.14C115.085 178.978 117.495 176.62 120.502 175.065C123.559 173.51 127.032 172.733 130.919 172.733C134.91 172.733 138.409 173.536 141.415 175.143C144.421 176.698 146.779 179.082 148.489 182.295C150.2 185.457 151.055 189.448 151.055 194.268C151.055 199.192 150.174 203.234 148.412 206.396C146.649 209.557 144.239 211.916 141.181 213.471C138.123 214.974 134.677 215.725 130.841 215.725ZM131.075 207.329C132.941 207.329 134.495 206.862 135.739 205.929C137.035 204.945 138.02 203.519 138.694 201.653C139.419 199.788 139.782 197.533 139.782 194.89C139.782 192.039 139.419 189.629 138.694 187.66C137.968 185.69 136.906 184.187 135.506 183.15C134.159 182.062 132.526 181.518 130.608 181.518C128.794 181.518 127.239 182.01 125.944 182.995C124.648 183.98 123.663 185.431 122.989 187.349C122.316 189.214 121.979 191.469 121.979 194.112C121.979 198.311 122.782 201.576 124.389 203.908C125.995 206.189 128.224 207.329 131.075 207.329ZM156.669 214.637V191.858V173.821H166.154L165.921 189.992H166.776C167.139 186.105 167.865 182.891 168.953 180.352C170.093 177.812 171.622 175.92 173.54 174.676C175.509 173.381 177.945 172.733 180.848 172.733C185.357 172.733 188.752 174.288 191.032 177.397C193.313 180.455 194.453 185.146 194.453 191.469V214.637H183.258V192.791C183.258 189.266 182.74 186.675 181.703 185.016C180.666 183.306 179.034 182.451 176.805 182.451C174.991 182.451 173.41 183.073 172.063 184.317C170.715 185.561 169.679 187.478 168.953 190.07C168.227 192.609 167.865 195.875 167.865 199.865V214.637H156.669ZM220.133 215.725C216.505 215.725 213.395 215.207 210.803 214.17C208.212 213.082 206.087 211.605 204.428 209.739C202.77 207.873 201.552 205.696 200.775 203.208C199.997 200.669 199.608 197.922 199.608 194.968C199.608 191.961 199.997 189.111 200.775 186.416C201.604 183.721 202.822 181.362 204.428 179.341C206.035 177.268 208.082 175.661 210.57 174.521C213.058 173.329 215.986 172.733 219.355 172.733C222.672 172.733 225.523 173.303 227.907 174.443C230.343 175.583 232.313 177.19 233.816 179.263C235.371 181.285 236.407 183.721 236.925 186.571C237.496 189.37 237.573 192.48 237.159 195.9L206.683 196.289V189.992L229.073 189.603L226.974 193.179C227.233 190.692 227.104 188.593 226.585 186.882C226.067 185.172 225.212 183.876 224.02 182.995C222.828 182.062 221.273 181.596 219.355 181.596C217.334 181.596 215.65 182.14 214.302 183.228C212.954 184.265 211.97 185.742 211.348 187.66C210.726 189.577 210.415 191.858 210.415 194.501C210.415 198.855 211.244 202.094 212.903 204.219C214.561 206.292 216.997 207.329 220.21 207.329C221.662 207.329 222.854 207.147 223.787 206.785C224.771 206.37 225.549 205.826 226.119 205.152C226.741 204.426 227.182 203.623 227.441 202.742C227.7 201.861 227.829 200.902 227.829 199.865L238.014 200.798C238.014 202.664 237.703 204.478 237.081 206.24C236.459 208.003 235.422 209.609 233.971 211.061C232.572 212.46 230.732 213.6 228.451 214.481C226.171 215.31 223.398 215.725 220.133 215.725ZM258.693 215.57C254.132 215.57 250.737 214.378 248.509 211.993C246.28 209.609 245.166 205.929 245.166 200.954V182.684H240.268L240.346 175.065H241.745C244.336 174.754 246.176 173.977 247.265 172.733C248.405 171.437 249.105 169.442 249.364 166.746L249.597 164.647H256.205V173.821H266.079V182.917H256.205V200.099C256.205 202.068 256.672 203.493 257.605 204.375C258.538 205.204 259.782 205.618 261.336 205.618C262.166 205.618 262.995 205.515 263.824 205.307C264.653 205.1 265.431 204.763 266.157 204.297V214.403C264.602 214.87 263.202 215.181 261.958 215.336C260.766 215.492 259.678 215.57 258.693 215.57ZM289.214 215.725C285.275 215.725 281.777 214.948 278.719 213.393C275.713 211.786 273.329 209.402 271.566 206.24C269.856 203.027 269.001 199.036 269.001 194.268C269.001 189.344 269.882 185.301 271.644 182.14C273.458 178.978 275.868 176.62 278.874 175.065C281.932 173.51 285.405 172.733 289.292 172.733C293.283 172.733 296.781 173.536 299.787 175.143C302.793 176.698 305.152 179.082 306.862 182.295C308.572 185.457 309.428 189.448 309.428 194.268C309.428 199.192 308.547 203.234 306.784 206.396C305.022 209.557 302.612 211.916 299.554 213.471C296.496 214.974 293.05 215.725 289.214 215.725ZM289.447 207.329C291.313 207.329 292.868 206.862 294.112 205.929C295.408 204.945 296.393 203.519 297.066 201.653C297.792 199.788 298.155 197.533 298.155 194.89C298.155 192.039 297.792 189.629 297.066 187.66C296.341 185.69 295.278 184.187 293.879 183.15C292.531 182.062 290.899 181.518 288.981 181.518C287.167 181.518 285.612 182.01 284.316 182.995C283.021 183.98 282.036 185.431 281.362 187.349C280.688 189.214 280.351 191.469 280.351 194.112C280.351 198.311 281.155 201.576 282.761 203.908C284.368 206.189 286.597 207.329 289.447 207.329ZM115.032 281.632V272.614H125.682C129.259 272.614 131.928 271.914 133.69 270.515C135.504 269.064 136.411 266.705 136.411 263.44C136.411 260.382 135.582 258.102 133.923 256.599C132.265 255.096 129.751 254.344 126.382 254.344H115.032V245.326H127.004C130.062 245.326 132.861 245.689 135.4 246.414C137.94 247.14 140.143 248.254 142.009 249.757C143.875 251.208 145.326 253.074 146.362 255.355C147.399 257.635 147.917 260.33 147.917 263.44C147.917 267.431 147.01 270.774 145.196 273.469C143.382 276.164 140.739 278.211 137.266 279.611C133.846 280.958 129.596 281.632 124.516 281.632H115.032ZM107.102 296.637V245.326H118.297V296.637H107.102ZM152.873 296.637V242.294H164.068V296.637H152.873ZM184.08 297.725C179.467 297.725 176.046 296.118 173.817 292.905C171.641 289.692 170.552 284.794 170.552 278.211V255.821H181.747V277.745C181.747 281.425 182.266 284.042 183.302 285.597C184.339 287.152 185.868 287.929 187.889 287.929C189.237 287.929 190.455 287.593 191.543 286.919C192.631 286.245 193.564 285.26 194.342 283.964C195.119 282.617 195.715 280.932 196.13 278.911C196.545 276.838 196.752 274.428 196.752 271.681V255.821H207.947V278.134V296.637H198.462L198.618 281.166H197.84C197.426 285.001 196.648 288.137 195.508 290.573C194.42 293.009 192.917 294.823 190.999 296.015C189.133 297.155 186.827 297.725 184.08 297.725ZM232.159 297.725C229.464 297.725 226.95 297.44 224.618 296.87C222.337 296.352 220.368 295.522 218.709 294.382C217.051 293.242 215.755 291.739 214.822 289.873C213.941 288.007 213.526 285.804 213.578 283.265L223.14 281.788C223.244 283.55 223.659 285.001 224.384 286.141C225.162 287.282 226.224 288.137 227.572 288.707C228.971 289.277 230.656 289.562 232.625 289.562C234.647 289.562 236.305 289.225 237.601 288.551C238.897 287.878 239.544 286.841 239.544 285.442C239.544 284.561 239.259 283.861 238.689 283.343C238.119 282.772 237.186 282.28 235.89 281.865C234.647 281.451 232.962 281.01 230.837 280.544C228.453 279.974 226.224 279.378 224.151 278.756C222.13 278.134 220.342 277.382 218.787 276.501C217.284 275.568 216.092 274.402 215.211 273.003C214.381 271.603 213.967 269.841 213.967 267.716C213.967 265.021 214.666 262.714 216.066 260.797C217.517 258.879 219.538 257.402 222.13 256.365C224.773 255.277 227.857 254.733 231.381 254.733C234.543 254.733 237.445 255.225 240.089 256.21C242.732 257.143 244.831 258.672 246.386 260.797C247.941 262.87 248.64 265.565 248.485 268.882L239 270.282C239.104 268.727 238.793 267.405 238.067 266.317C237.394 265.228 236.435 264.399 235.191 263.829C233.999 263.259 232.547 262.974 230.837 262.974C228.816 262.974 227.235 263.362 226.095 264.14C225.006 264.865 224.462 265.824 224.462 267.016C224.462 268.001 224.799 268.804 225.473 269.426C226.198 270.048 227.261 270.567 228.66 270.981C230.06 271.344 231.77 271.733 233.791 272.147C235.605 272.51 237.471 272.977 239.389 273.547C241.307 274.065 243.069 274.791 244.676 275.724C246.334 276.657 247.656 277.875 248.64 279.378C249.625 280.881 250.118 282.798 250.118 285.131C250.118 287.722 249.418 289.977 248.018 291.894C246.619 293.76 244.572 295.211 241.877 296.248C239.233 297.233 235.994 297.725 232.159 297.725Z" fill="url(#paint1_linear_30732_10618)"/>
</g>
<defs>
<linearGradient id="paint0_linear_30732_10618" x1="364.971" y1="157.605" x2="364.971" y2="329.969" gradientUnits="userSpaceOnUse">
<stop stop-color="#FA6C12"/>
<stop offset="1" stop-color="#E53B4D"/>
</linearGradient>
<linearGradient id="paint1_linear_30732_10618" x1="177.466" y1="147.637" x2="177.466" y2="312.637" gradientUnits="userSpaceOnUse">
<stop stop-color="#FA6C12"/>
<stop offset="1" stop-color="#E53B4D"/>
</linearGradient>
<clipPath id="clip0_30732_10618">
<rect width="355" height="355" fill="white"/>
</clipPath>
<clipPath id="clip1_30732_10618">
<rect width="172.38" height="172.363" fill="white" transform="translate(278.781 157.605) rotate(168)"/>
</clipPath>
<clipPath id="clip2_30732_10618">
<rect width="172.361" height="172.361" fill="white" transform="translate(278.781 157.602) rotate(168)"/>
</clipPath>
</defs>
</svg>
