<svg width="140" height="44" viewBox="0 0 140 44" fill="none" xmlns="http://www.w3.org/2000/svg">
<g clip-path="url(#clip0_30732_11032)">
<g clip-path="url(#clip1_30732_11032)">
<path d="M18.5139 20.2259C18.4551 19.3442 18.22 18.4626 17.7498 17.6986L13.7531 10.7044C13.4593 10.1755 13.2242 9.58774 13.1066 9L12.9303 9.29387C11.9311 10.9983 11.9311 13.173 12.9303 14.8774L16.1629 20.461C17.162 22.1654 17.162 24.34 16.1629 26.0445L15.9866 26.3384C15.869 25.7506 15.6339 25.1629 15.3401 24.6339L12.4013 19.5206L10.5206 16.2292C10.2267 15.7003 9.9916 15.1125 9.87405 14.5248L9.69773 14.8186C8.69857 16.5231 8.69857 18.639 9.69773 20.4022L12.9303 25.9857C13.9295 27.6902 13.9295 29.8648 12.9303 31.5693L12.754 31.8631C12.6364 31.2754 12.4013 30.6877 12.1075 30.1587L8.05206 23.1646C7.52309 22.2242 7.28799 21.1662 7.28799 20.1083C2.99748 21.225 0 23.6348 0 26.3971C0 30.2762 5.75987 33.3913 12.8715 33.3913C19.9832 33.3913 25.7431 30.2762 25.7431 26.3971C25.8018 23.7523 22.8631 21.3426 18.5139 20.2259ZM30.6801 32.157C30.7389 31.1578 30.8564 30.5113 31.1503 29.6885C32.5021 30.335 34.2653 30.6289 35.5584 30.6289C37.7918 30.6289 39.0848 29.9236 39.0848 28.4542C39.0848 27.0437 38.1444 26.3971 35.911 25.398L34.6767 24.9278C32.3845 23.9286 30.8564 22.6356 30.8564 20.1083C30.8564 17.3459 32.796 15.5827 36.6751 15.5827C38.262 15.5827 39.7313 15.8178 41.0831 16.288C41.0243 17.2284 40.848 17.9924 40.6129 18.6977C39.3199 18.2275 37.733 17.9924 36.6163 17.9924C34.5004 17.9924 33.56 18.8153 33.56 20.1083C33.56 21.3426 34.5004 22.1066 36.2049 22.8119L37.4979 23.3409C40.5542 24.6339 41.8472 26.0445 41.8472 28.3955C41.8472 31.1578 39.7313 33.0974 35.6171 33.0974C33.6776 33.0974 32.0319 32.8035 30.6801 32.157ZM54.8363 20.5785V32.686H52.3678L52.2502 31.2166C51.5449 32.2746 50.5458 32.9798 48.8413 32.9798C45.6675 32.9798 43.4929 30.6289 43.4929 26.5735C43.4929 22.3417 45.7851 19.8732 50.2519 19.8732C52.0151 19.932 53.4845 20.1083 54.8363 20.5785ZM52.1914 29.9236V22.3417C51.6625 22.2242 51.016 22.2242 50.2519 22.2242C47.4895 22.2242 46.1965 23.9286 46.1965 26.6322C46.1965 29.1008 47.1956 30.864 49.5466 30.864C50.6633 30.8052 51.4861 30.4526 52.1914 29.9236ZM68.4719 24.5751V32.686H65.827V25.0453C65.827 23.1058 65.1805 22.2242 62.5357 22.2242C61.8892 22.2242 61.1839 22.283 60.4198 22.4005V32.686H57.775V20.5785C59.4794 20.1671 61.3602 19.8732 62.5945 19.8732C67.0613 19.932 68.4719 21.6364 68.4719 24.5751ZM75.8774 30.7464C76.6415 30.7464 77.4055 30.6289 77.9345 30.3938C77.8757 31.0991 77.7582 31.9219 77.6406 32.6272C76.9353 32.9211 76.1125 33.0386 75.4072 33.0386C72.8212 33.0386 71.1755 31.8631 71.1755 28.9244V16.1704C71.9983 15.8766 72.9975 15.759 73.8203 15.759V20.3434H78.0521C77.9933 21.1662 77.9345 21.9303 77.817 22.6356H73.8203V28.5718C73.8203 30.0999 74.5844 30.7464 75.8774 30.7464ZM90.1595 20.5785V32.686H87.691L87.5735 31.2166C86.8682 32.2746 85.869 32.9798 84.1646 32.9798C80.9908 32.9798 78.8161 30.6289 78.8161 26.5735C78.8161 22.3417 81.1083 19.8732 85.5751 19.8732C87.3384 19.932 88.7489 20.1083 90.1595 20.5785ZM87.4559 29.9236V22.3417C86.927 22.2242 86.2804 22.2242 85.5164 22.2242C82.754 22.2242 81.461 23.9286 81.461 26.6322C81.461 29.1008 82.4601 30.864 84.8111 30.864C85.9278 30.8052 86.8094 30.4526 87.4559 29.9236ZM103.795 24.5751V32.686H101.092V25.0453C101.092 23.1058 100.445 22.2242 97.8002 22.2242C97.1536 22.2242 96.4484 22.283 95.6843 22.4005V32.686H93.0395V20.5785C94.7439 20.1671 96.6247 19.8732 97.8589 19.8732C102.326 19.932 103.795 21.6364 103.795 24.5751ZM117.254 15.759V32.686H114.786L114.668 31.1578C113.963 32.2746 112.964 32.9798 111.201 32.9798C108.027 32.9798 105.852 30.6289 105.852 26.5735C105.852 22.3417 108.144 19.8732 112.611 19.8732C113.317 19.8732 113.963 19.932 114.61 20.0495V16.0529C115.432 15.8178 116.373 15.759 117.254 15.759ZM114.61 29.9236V22.4593C113.904 22.3417 113.199 22.2242 112.494 22.2242C109.849 22.2242 108.615 23.8699 108.615 26.6322C108.615 29.1008 109.614 30.864 111.965 30.864C113.023 30.8052 113.904 30.4526 114.61 29.9236ZM130.655 27.5139H122.133C122.485 29.6885 123.72 30.6877 126.129 30.6877C127.599 30.6877 129.068 30.3938 130.361 29.7473C130.243 30.4526 130.126 31.3929 129.95 32.157C128.715 32.686 127.481 32.9211 126.012 32.9211C121.545 32.9211 119.429 30.4526 119.429 26.3384C119.429 22.7531 121.075 19.8732 125.306 19.8732C129.127 19.8732 130.772 22.3417 130.772 25.398C130.772 26.2208 130.772 26.8086 130.655 27.5139ZM122.133 25.2804H128.128C128.128 23.2821 127.07 22.1066 125.248 22.1066C123.308 22.1654 122.309 23.2233 122.133 25.2804ZM140 20.0495C140 20.8724 139.882 21.8128 139.765 22.3417C139.118 22.283 138.531 22.2242 137.767 22.2242C137.12 22.2242 136.474 22.283 135.827 22.3417V32.686H133.182V20.5785C134.299 20.1671 136.238 19.8732 137.708 19.8732C138.472 19.932 139.412 19.932 140 20.0495Z" fill="#EA1D25"/>
</g>
</g>
<defs>
<clipPath id="clip0_30732_11032">
<rect width="140" height="44" fill="white"/>
</clipPath>
<clipPath id="clip1_30732_11032">
<rect width="140" height="24.3913" fill="white" transform="translate(0 9)"/>
</clipPath>
</defs>
</svg>
