<svg width="50" height="50" viewBox="0 0 50 50" fill="none" xmlns="http://www.w3.org/2000/svg">
<g clip-path="url(#clip0_30728_10525)">
<rect width="50" height="50" fill="#FAFAFA"/>
<path d="M43.7474 24.4804H6.2474C4.2474 24.4804 2.60156 22.8346 2.60156 20.8346V13.9179C2.60156 12.5012 3.58068 11.0638 4.89318 10.5429L23.6432 3.04297C24.4348 2.73047 25.5599 2.73047 26.3516 3.04297L45.1016 10.5429C46.4141 11.0638 47.3932 12.5221 47.3932 13.9179V20.8346C47.3932 22.8346 45.7474 24.4804 43.7474 24.4804ZM24.9974 5.91798C24.9141 5.91798 24.8308 5.91787 24.7891 5.93871L6.05984 13.4388C5.93484 13.5013 5.72656 13.7721 5.72656 13.9179V20.8346C5.72656 21.1263 5.95573 21.3554 6.2474 21.3554H43.7474C44.0391 21.3554 44.2682 21.1263 44.2682 20.8346V13.9179C44.2682 13.7721 44.0808 13.5013 43.935 13.4388L25.185 5.93871C25.1433 5.91787 25.0807 5.91798 24.9974 5.91798Z" fill="#FA6C12"/>
<path d="M45.8307 47.3958H4.16406C3.3099 47.3958 2.60156 46.6875 2.60156 45.8333V39.5833C2.60156 37.5833 4.2474 35.9375 6.2474 35.9375H43.7474C45.7474 35.9375 47.3932 37.5833 47.3932 39.5833V45.8333C47.3932 46.6875 46.6849 47.3958 45.8307 47.3958ZM5.72656 44.2708H44.2682V39.5833C44.2682 39.2917 44.0391 39.0625 43.7474 39.0625H6.2474C5.95573 39.0625 5.72656 39.2917 5.72656 39.5833V44.2708Z" fill="#FA6C12"/>
<path d="M8.32812 39.0638C7.47396 39.0638 6.76562 38.3555 6.76562 37.5013V22.918C6.76562 22.0638 7.47396 21.3555 8.32812 21.3555C9.18229 21.3555 9.89062 22.0638 9.89062 22.918V37.5013C9.89062 38.3555 9.18229 39.0638 8.32812 39.0638Z" fill="#FA6C12"/>
<path d="M16.6641 39.0638C15.8099 39.0638 15.1016 38.3555 15.1016 37.5013V22.918C15.1016 22.0638 15.8099 21.3555 16.6641 21.3555C17.5182 21.3555 18.2266 22.0638 18.2266 22.918V37.5013C18.2266 38.3555 17.5182 39.0638 16.6641 39.0638Z" fill="#FA6C12"/>
<path d="M24.9922 39.0638C24.138 39.0638 23.4297 38.3555 23.4297 37.5013V22.918C23.4297 22.0638 24.138 21.3555 24.9922 21.3555C25.8464 21.3555 26.5547 22.0638 26.5547 22.918V37.5013C26.5547 38.3555 25.8464 39.0638 24.9922 39.0638Z" fill="#FA6C12"/>
<path d="M33.3281 39.0638C32.474 39.0638 31.7656 38.3555 31.7656 37.5013V22.918C31.7656 22.0638 32.474 21.3555 33.3281 21.3555C34.1823 21.3555 34.8906 22.0638 34.8906 22.918V37.5013C34.8906 38.3555 34.1823 39.0638 33.3281 39.0638Z" fill="#FA6C12"/>
<path d="M41.6641 39.0638C40.8099 39.0638 40.1016 38.3555 40.1016 37.5013V22.918C40.1016 22.0638 40.8099 21.3555 41.6641 21.3555C42.5182 21.3555 43.2266 22.0638 43.2266 22.918V37.5013C43.2266 38.3555 42.5182 39.0638 41.6641 39.0638Z" fill="#FA6C12"/>
<path d="M47.9115 47.3945H2.07813C1.22396 47.3945 0.515625 46.6862 0.515625 45.832C0.515625 44.9779 1.22396 44.2695 2.07813 44.2695H47.9115C48.7656 44.2695 49.474 44.9779 49.474 45.832C49.474 46.6862 48.7656 47.3945 47.9115 47.3945Z" fill="#FA6C12"/>
<path d="M24.9922 19.2695C22.4089 19.2695 20.3047 17.1654 20.3047 14.582C20.3047 11.9987 22.4089 9.89453 24.9922 9.89453C27.5755 9.89453 29.6797 11.9987 29.6797 14.582C29.6797 17.1654 27.5755 19.2695 24.9922 19.2695ZM24.9922 13.0195C24.138 13.0195 23.4297 13.7279 23.4297 14.582C23.4297 15.4362 24.138 16.1445 24.9922 16.1445C25.8464 16.1445 26.5547 15.4362 26.5547 14.582C26.5547 13.7279 25.8464 13.0195 24.9922 13.0195Z" fill="#FA6C12"/>
</g>
<defs>
<clipPath id="clip0_30728_10525">
<rect width="50" height="50" fill="white"/>
</clipPath>
</defs>
</svg>
