<svg width="140" height="44" viewBox="0 0 140 44" fill="none" xmlns="http://www.w3.org/2000/svg">
<g clip-path="url(#clip0_30732_10986)">
<path d="M139.854 15.9528H126.554C125.076 15.9528 123.754 17.0417 123.598 18.5194C123.365 20.5417 121.809 21.7083 119.943 21.7861C117.92 21.7861 116.287 20.1528 116.287 18.1306C116.287 16.1083 117.92 14.475 119.943 14.475C121.265 14.475 122.432 15.175 123.054 16.2639C123.132 16.3417 123.209 16.3417 123.287 16.2639C123.676 15.7972 124.143 15.4083 124.687 15.175C124.765 15.175 124.765 15.0194 124.765 14.9417C123.754 13.3861 121.965 12.375 119.943 12.375C116.754 12.375 114.187 14.9417 114.109 18.2083C114.109 21.3972 116.676 24.0417 119.943 24.0417C122.898 23.9639 125.387 22.0194 125.698 18.9083C125.776 18.5194 126.087 18.2083 126.554 18.2083H137.909V19.7639C137.909 20.6194 137.676 21.8639 136.587 21.8639C135.498 21.8639 135.265 20.6194 135.265 19.7639V19.2972C135.265 19.2194 135.187 19.1417 135.109 19.1417H133.243C133.165 19.1417 133.087 19.2194 133.087 19.2972V19.6861C133.087 20.5417 132.854 21.7861 131.765 21.7861C130.676 21.7861 130.443 20.5417 130.443 19.6861V19.2972C130.443 19.2194 130.365 19.1417 130.287 19.1417H128.42C128.343 19.1417 128.265 19.2194 128.265 19.2972V19.6861C128.265 21.7861 129.432 23.8861 131.687 23.8861C132.62 23.8861 133.476 23.4972 134.02 22.7972C134.643 23.4972 135.42 23.8861 136.354 23.8861C138.687 23.8861 139.776 21.7083 139.776 19.6861V16.1083C140.087 16.0306 140.009 15.9528 139.854 15.9528Z" fill="#E9004C"/>
<path d="M39.5889 17.9047C36.0111 17.9047 33.6 20.4714 33.6 24.2825C33.6 28.0936 36.1667 30.6602 39.8222 30.6602C41.6111 30.6602 43.2444 30.2714 44.7222 29.0269C44.8 28.9491 44.8 28.8714 44.7222 28.8714L43.5556 27.238C43.4778 27.1602 43.4 27.1602 43.3222 27.238C42.3111 28.0158 41.1444 28.4047 39.9778 28.4047C37.6444 28.4047 36.2444 26.6936 36.2444 24.5158C36.2444 22.4158 37.2556 20.3936 39.5889 20.3936C41.3 20.3936 42.3889 21.4825 42.6222 23.3491H37.5667C37.4889 23.3491 37.4111 23.4269 37.4111 23.4269C37.3333 23.9714 37.3333 24.5936 37.4111 25.2158C37.4111 25.2936 37.4889 25.2936 37.5667 25.2936H45.1111C45.1889 25.2936 45.2667 25.2158 45.2667 25.138V24.2825C45.2667 20.4714 42.9333 17.9047 39.5889 17.9047ZM26.5222 17.9047C24.8111 17.9047 23.5667 18.6047 22.7111 19.6936V18.2936C22.7111 18.2158 22.6333 18.138 22.5556 18.138H20.2222C20.1444 18.138 20.0667 18.2158 20.0667 18.2936V35.4825C20.0667 35.5602 20.1444 35.638 20.2222 35.638H22.5556C22.6333 35.638 22.7111 35.5602 22.7111 35.4825V23.5825C22.7111 21.7158 24.4222 20.3936 26.2111 20.3936C28.4667 20.3936 29.8667 22.1825 29.8667 24.2825C29.8667 26.3825 28.4667 28.1714 26.2111 28.1714C25.4333 28.1714 24.6556 27.938 24.1111 27.5491C24.0333 27.4714 23.8778 27.5491 23.8778 27.6269V29.8047C23.8778 29.8825 23.9556 29.9602 24.0333 30.038C24.7333 30.4269 25.5111 30.6602 26.5222 30.6602C29.8667 30.6602 32.5889 28.0158 32.5889 24.2825C32.5889 20.5491 29.8667 17.9047 26.5222 17.9047ZM53.2 17.9047C51.9556 17.9047 50.4778 18.2936 49.5444 19.6936V18.2936C49.5444 18.2158 49.4667 18.138 49.3889 18.138H47.0556C46.9778 18.138 46.9 18.2158 46.9 18.2936V30.1158C46.9 30.1936 46.9778 30.2714 47.0556 30.2714H49.3889C49.4667 30.2714 49.5444 30.1936 49.5444 30.1158V23.5825C49.5444 21.4825 50.9444 20.3936 52.6556 20.3936C54.4444 20.3936 55.4556 21.5602 55.4556 23.5825V30.1936C55.4556 30.2714 55.5333 30.3491 55.6111 30.3491H57.9444C58.0222 30.3491 58.1 30.2714 58.1 30.1936V22.7269C58.1 19.8491 56.0778 17.9047 53.2 17.9047ZM10.0333 12.3047C9.95556 12.3047 9.87778 12.3825 9.87778 12.4602V14.9491C9.87778 15.0269 9.95556 15.1047 10.0333 15.1047C13.2222 15.4158 15.5556 17.9825 15.5556 21.4825C15.5556 25.2936 12.9111 27.938 9.33333 27.938C5.75556 27.938 3.11111 25.2936 3.11111 21.4825C3.11111 17.9825 5.36667 15.4158 8.63333 15.1047C8.71111 15.1047 8.78889 15.0269 8.78889 14.9491V12.4602C8.63333 12.3825 8.55556 12.3047 8.47778 12.3047C3.42222 12.6936 0 16.4269 0 21.4047C0 26.6936 3.81111 30.5825 9.25556 30.5825C14.7 30.5825 18.5111 26.6936 18.5111 21.4047C18.5111 16.4269 15.0111 12.6936 10.0333 12.3047ZM111.922 30.038L107.022 23.8936L111.844 18.4491C111.922 18.3714 111.844 18.2158 111.767 18.2158H108.889C108.811 18.2158 108.733 18.2158 108.656 18.2936L104.767 22.8047H103.678V12.7714C103.678 12.6936 103.6 12.6158 103.522 12.6158H101.189C101.111 12.6158 101.033 12.6936 101.033 12.7714V30.1158C101.033 30.1936 101.111 30.2714 101.189 30.2714H103.522C103.6 30.2714 103.678 30.1936 103.678 30.1158V25.138H104.767L108.733 30.1158C108.811 30.1936 108.889 30.1936 108.967 30.1936H111.844C112 30.2714 112 30.1158 111.922 30.038ZM94.1889 17.9047C92.9444 17.9047 91.4667 18.2936 90.5333 19.6936V18.2936C90.5333 18.2158 90.4556 18.138 90.3778 18.138H88.0444C87.9667 18.138 87.8889 18.2158 87.8889 18.2936V30.1158C87.8889 30.1936 87.9667 30.2714 88.0444 30.2714H90.3778C90.4556 30.2714 90.5333 30.1936 90.5333 30.1158V23.5825C90.5333 21.4825 91.9333 20.3936 93.6444 20.3936C95.4333 20.3936 96.4444 21.5602 96.4444 23.5825V30.1936C96.4444 30.2714 96.5222 30.3491 96.6 30.3491H98.9333C99.0111 30.3491 99.0889 30.2714 99.0889 30.1936V22.7269C99.0889 19.8491 97.0667 17.9047 94.1889 17.9047ZM85.7889 18.2158H83.4556C83.3778 18.2158 83.3 18.2936 83.3 18.3714V19.6936C82.4444 18.6047 81.2778 17.9047 79.4889 17.9047C76.1444 17.9047 73.4222 20.5491 73.4222 24.2825C73.4222 28.0158 76.0667 30.6602 79.4889 30.6602C80.5 30.6602 81.2778 30.4269 81.9778 30.038C82.0556 29.9602 82.1333 29.8825 82.1333 29.8047V27.6269C82.1333 27.5491 81.9778 27.4714 81.9 27.5491C81.3556 27.938 80.5778 28.1714 79.8 28.1714C77.5444 28.1714 76.1444 26.3825 76.1444 24.2825C76.1444 22.1825 77.5444 20.3936 79.8 20.3936C81.5889 20.3936 83.3 21.7158 83.3 23.5825V30.1158C83.3 30.1936 83.3778 30.2714 83.4556 30.2714H85.7889C85.8667 30.2714 85.9444 30.1936 85.9444 30.1158V18.2936C85.9444 18.2158 85.8667 18.2158 85.7889 18.2158ZM66.5 17.9047C65.4889 17.9047 64.7111 18.138 64.0111 18.5269C63.9333 18.6047 63.8556 18.6825 63.8556 18.7602V20.8602C63.8556 20.938 64.0111 21.0158 64.0889 20.938C64.6333 20.5491 65.4111 20.3158 66.1889 20.3158C68.4444 20.3158 69.8444 22.1047 69.8444 24.2047C69.8444 26.3047 68.4444 28.0936 66.1889 28.0936C64.4 28.0936 62.6889 26.7714 62.6889 24.9047V12.7714C62.6889 12.6936 62.6111 12.6158 62.5333 12.6158H60.2C60.1222 12.6158 60.0444 12.6936 60.0444 12.7714V30.1158C60.0444 30.1936 60.1222 30.2714 60.2 30.2714H62.5333C62.6111 30.2714 62.6889 30.1936 62.6889 30.1158V28.7936C63.5444 29.8825 64.7111 30.5825 66.5 30.5825C69.8444 30.5825 72.5667 27.938 72.5667 24.2047C72.4889 20.5491 69.8444 17.9047 66.5 17.9047Z" fill="#00263D"/>
</g>
<defs>
<clipPath id="clip0_30732_10986">
<rect width="140" height="44" fill="white"/>
</clipPath>
</defs>
</svg>
