<svg width="140" height="44" viewBox="0 0 140 44" fill="none" xmlns="http://www.w3.org/2000/svg">
<g clip-path="url(#clip0_30732_11010)">
<path d="M38.7282 17.4072C37.3557 13.5197 34.1554 12.1484 30.2358 12.1484C28.1794 12.1484 26.2514 12.6057 24.6176 13.9768C23.0171 15.3159 22.2002 17.145 22.2002 19.2349C22.2002 24.1345 26.1198 25.3105 30.1049 26.1274C31.4747 26.4195 34.0239 26.7806 34.0239 28.6431C34.0239 30.5036 32.033 31.0599 30.5301 31.0599C28.2117 31.0599 26.5142 30.2422 25.8604 27.8904L21.0234 29.0008C22.0383 33.3783 25.8604 35.2088 30.072 35.2088C32.327 35.2088 34.7753 34.7842 36.5701 33.3783C38.3043 32.0379 39.3486 29.9487 39.3486 27.7601C39.3486 25.5406 38.2361 23.6787 36.4084 22.4702C34.84 21.4246 32.3904 20.9666 30.5634 20.5756C29.2877 20.3449 27.3276 19.9538 27.3276 18.3233C27.3276 16.5904 29.027 16.2301 30.4309 16.2301C32.4225 16.2301 33.6319 16.9822 34.2858 18.8768L38.7282 17.4072ZM56.0385 34.8813C55.7764 34.0657 55.7109 33.2474 55.7109 32.3984V24.6574C55.7109 22.6659 55.8747 20.8361 54.1773 19.4648C52.8348 18.3544 50.6153 17.9612 48.9192 17.9612C45.4235 17.9612 41.5045 19.1386 41.0152 23.1545L45.554 23.5804C45.554 21.9472 46.8938 21.1623 48.4266 21.1623C49.1467 21.1623 49.963 21.3917 50.3882 21.9472C50.8789 22.5669 50.812 23.4153 50.812 24.1346V24.5257C48.787 24.723 46.1416 24.8526 44.2492 25.572C42.0611 26.3883 40.5248 28.0563 40.5248 30.5039C40.5248 33.6406 42.8098 35.2089 45.75 35.2089C48.2336 35.2089 49.6682 34.2602 51.0427 32.3008C51.0093 33.1505 51.0741 34.0309 51.2706 34.8813L56.0385 34.8813ZM50.8119 27.5971C50.8119 28.7764 50.846 29.7531 50.1601 30.7987C49.6039 31.6491 48.7221 32.1705 47.742 32.1705C46.4043 32.1705 45.6201 31.288 45.6201 29.9824C45.6201 27.5643 48.9821 27.1412 50.812 26.9432L50.8119 27.5971ZM63.2261 25.5407C63.2261 23.7771 63.5503 21.2612 65.8701 21.2612C68.5168 21.2612 68.5168 24.7229 68.5168 26.5847C68.5168 28.3804 68.5168 31.8428 65.8052 31.8428C64.9228 31.8428 64.2362 31.4196 63.7802 30.6996C63.2574 29.8854 63.2261 28.8378 63.2261 27.9246L63.2261 25.5407ZM58.3579 34.8815H60.9699C61.2647 33.9997 61.4613 33.051 62.0475 32.3337C63.2576 34.3259 64.4008 35.2091 66.7848 35.2091C71.7807 35.2091 73.5121 30.9286 73.5121 26.5851C73.5121 22.6661 72.0755 17.9618 67.3395 17.9618C65.477 17.9618 64.1072 18.746 63.289 20.3799H63.16V12.4752H58.358L58.3579 34.8815ZM90.007 34.8815C89.7443 34.0659 89.6822 33.2476 89.6822 32.3986V24.6576C89.6822 22.6661 89.8446 20.8363 88.1431 19.465C86.8068 18.3546 84.5847 17.9614 82.8865 17.9614C79.3927 17.9614 75.4717 19.1388 74.9831 23.1547L79.5223 23.5806C79.5223 21.9474 80.8607 21.1625 82.3963 21.1625C83.1156 21.1625 83.9305 21.3919 84.3564 21.9474C84.8458 22.5671 84.783 23.4155 84.783 24.1349V24.5259C82.7566 24.7232 80.1112 24.8529 78.2153 25.5722C76.0272 26.3885 74.4902 28.0565 74.4902 30.5041C74.4902 33.6409 76.7779 35.2091 79.7175 35.2091C82.1997 35.2091 83.6371 34.2605 85.0109 32.301C84.9775 33.1507 85.0409 34.0311 85.2388 34.8815L90.007 34.8815ZM84.7833 27.5973C84.7833 28.7767 84.8147 29.7533 84.1288 30.7989C83.5725 31.6493 82.6901 32.1707 81.712 32.1707C80.3716 32.1707 79.5881 31.2883 79.5881 29.9826C79.5881 27.5645 82.9508 27.1414 84.7831 26.9434L84.7833 27.5973ZM106.501 34.8815V12.4748H101.701V20.0527C100.654 18.5171 99.4155 17.9615 97.5516 17.9615C92.7174 17.9615 91.4767 22.829 91.4767 26.7808C91.4767 30.635 92.7823 35.2092 97.4533 35.2092C99.5766 35.2092 100.949 34.066 101.865 32.301H101.93V34.8816L106.501 34.8815ZM101.701 27.9574C101.701 28.7764 101.667 29.6562 101.276 30.407C100.883 31.1563 100.067 31.746 99.1862 31.746C96.8002 31.746 96.5388 28.7082 96.5388 26.9111C96.5388 24.9182 96.6384 21.3255 99.38 21.3255C101.569 21.3255 101.701 24.0691 101.701 25.6711V27.9574ZM124.14 27.4005C124.173 25.1476 123.813 22.7963 122.441 20.9024C121.067 19.0078 118.684 17.9615 116.365 17.9615C111.203 17.9615 108.299 21.9137 108.299 26.8137C108.299 31.7463 111.531 35.2092 116.495 35.2092C122.113 35.2092 124.04 30.3088 124.04 29.4912L119.597 29.1657C119.597 30.6999 118.13 31.7783 116.66 31.7783C114.57 31.7783 113.458 30.1785 113.458 28.2177L113.491 27.4008L124.14 27.4005ZM113.458 24.56C113.623 22.666 114.438 21.0963 116.561 21.0963C118.652 21.0963 119.24 22.7623 119.337 24.56H113.458ZM126.262 34.8815H131.062V12.4748H126.262V34.8815ZM133.448 34.8815H138.247V12.4748H133.448V34.8815Z" fill="black"/>
<path d="M12.2952 9.10938C7.3861 9.10938 3.40625 13.0885 3.40625 17.9976C3.40625 22.9074 7.38575 26.8866 12.2952 26.8866C17.2026 26.8866 21.1848 22.9074 21.1848 17.9976C21.1848 13.0885 17.2026 9.10938 12.2952 9.10938Z" fill="#006DFF"/>
<path d="M13.3989 16.8638C13.6446 16.6829 13.7757 16.3608 13.7757 16.0619C13.7757 15.7363 13.6207 15.4258 13.3334 15.2572C13.0379 15.0879 12.4926 15.1261 12.1418 15.1261H10.8846V17.0706H12.2987C12.6611 17.0706 13.0891 17.0972 13.3989 16.8638ZM13.4629 18.821C13.1653 18.6517 12.7511 18.6517 12.4146 18.6517H10.8851V20.79H12.3238C12.6998 20.79 13.179 20.814 13.5025 20.5948C13.8021 20.4003 13.97 20.0379 13.97 19.6755C13.97 19.337 13.7618 18.9882 13.4629 18.821ZM15.0691 21.956C14.4228 22.4358 13.556 22.4358 12.7895 22.4358H8.8125V13.5469H12.7895C13.4905 13.5469 14.2153 13.5469 14.8241 13.9352C15.536 14.3904 15.9127 15.0375 15.9127 15.881C15.9127 16.8898 15.2384 17.5641 14.3061 17.7975V17.822C15.407 18.0431 16.1598 18.8854 16.1598 20.0374C16.1598 20.8141 15.6922 21.5035 15.0691 21.956Z" fill="white"/>
</g>
<defs>
<clipPath id="clip0_30732_11010">
<rect width="140" height="44" fill="white"/>
</clipPath>
</defs>
</svg>
